<?xml version="1.0" encoding="UTF-8" standalone="no"?>
<!-- Created with Inkscape (http://www.inkscape.org/) -->

<svg
   width="523.5481"
   height="104.10918"
   viewBox="0 0 138.5221 27.545556"
   version="1.1"
   id="svg29132"
   inkscape:version="1.1.2 (0a00cf5339, 2022-02-04)"
   sodipodi:docname="logo.svg"
   xmlns:inkscape="http://www.inkscape.org/namespaces/inkscape"
   xmlns:sodipodi="http://sodipodi.sourceforge.net/DTD/sodipodi-0.dtd"
   xmlns="http://www.w3.org/2000/svg"
   xmlns:svg="http://www.w3.org/2000/svg">
  <sodipodi:namedview
     id="namedview29134"
     pagecolor="#ffffff"
     bordercolor="#eeeeee"
     borderopacity="1"
     inkscape:pageshadow="0"
     inkscape:pageopacity="0"
     inkscape:pagecheckerboard="0"
     inkscape:document-units="px"
     showgrid="false"
     inkscape:zoom="0.90583672"
     inkscape:cx="356.5764"
     inkscape:cy="-84.452306"
     inkscape:window-width="1920"
     inkscape:window-height="1080"
     inkscape:window-x="0"
     inkscape:window-y="0"
     inkscape:window-maximized="1"
     inkscape:current-layer="layer1"
     showguides="true"
     inkscape:guide-bbox="true"
     units="px"
     fit-margin-top="0"
     fit-margin-left="0"
     fit-margin-right="0"
     fit-margin-bottom="0"
     showborder="true"
     guidetolerance="10000"
     gridtolerance="14.6"
     objecttolerance="1"
     inkscape:snap-global="false">
    <sodipodi:guide
       position="15.904369,-11.787188"
       orientation="1,0"
       id="guide75000" />
    <sodipodi:guide
       position="51.222194,3.6435227"
       orientation="1,0"
       id="guide77820" />
    <sodipodi:guide
       position="66.483752,-0.95685755"
       orientation="1,0"
       id="guide77822" />
    <sodipodi:guide
       position="123.93548,-13.646528"
       orientation="1,0"
       id="guide77824" />
    <sodipodi:guide
       position="112.63353,-0.22663754"
       orientation="1,0"
       id="guide83240" />
    <sodipodi:guide
       position="53.258901,33.720773"
       orientation="1,0"
       id="guide83452" />
  </sodipodi:namedview>
  <defs
     id="defs29129" />
  <g
     inkscape:label="Layer 1"
     inkscape:groupmode="layer"
     id="layer1"
     transform="translate(-28.225531,-71.39142)">
    <g
       aria-label="M. e. Mills


"
       id="text13804-0"
       style="font-size:6.35px;line-height:1.25;font-family:SMITHOUSE;-inkscape-font-specification:'SMITHOUSE, Normal';text-align:center;letter-spacing:-0.0105833px;word-spacing:0px;text-anchor:middle;fill:#333333;stroke-width:0.264583">
      <path
         d="m 46.945331,77.08102 c 0.0762,0 0.1524,0 0.254,0 h -0.0254 c 0.0762,-0.127 0.127,-0.254 0.2032,-0.381 -0.254,-0.127 -0.5334,-0.254 -0.7874,-0.381 0,0.3556 0,0.6604 0,0.9652 0.127,-0.0762 0.254,-0.1524 0.3556,-0.2032 z m 0.2286,0 c -0.0762,0 -0.1524,0 -0.2032,0 0.0254,-0.0508 0.0508,-0.0508 0.1016,-0.0508 0.0254,0 0.0762,0 0.1016,0.0508 z m -1.0668,-1.4224 c -0.1524,-0.1016 -0.3048,-0.2032 -0.4318,-0.2794 0.0508,0.2794 0.0762,0.381 0.1778,0.381 0.0508,0 0.127,-0.0254 0.254,-0.1016 z m -0.4318,-0.2794 c 0,-0.0254 0,-0.0254 0,-0.0508 -0.0254,0 -0.0254,0 -0.0254,0.0254 0,0 0.0254,0.0254 0.0254,0.0254 z m 0.6604,-0.0508 c 0.0762,-0.0254 0.1524,-0.0762 0.254,-0.127 -0.1016,0 -0.2032,0 -0.2794,0 0,0.0508 0.0254,0.1016 0.0254,0.127 z m 0.2286,-0.127 c 0.0254,0 0.0508,0 0.0508,0 0,0 -0.0254,0 -0.0508,0 z m -13.9954,1.4986 -0.0254,-0.0254 -0.0254,0.0508 z m 18.1356,13.1064 c -0.4318,-1.0922 -0.508,-2.2606 -0.4826,-3.429 0.0254,-1.8288 -0.0762,-3.6576 0,-5.5118 0.0508,-1.5748 -0.0254,-3.1496 -0.0254,-4.7244 -0.0254,-1.4986 0.254,-2.9464 0.9652,-4.2926 0.0508,-0.0762 0.0254,-0.1778 0.0508,-0.3302 -0.2286,-0.0254 -0.4318,-0.0762 -0.635,-0.0762 -1.8288,-0.0254 -3.6576,-0.0254 -5.5118,-0.0254 -0.1524,0 -0.3048,0.0254 -0.4572,0.0254 -0.7112,0.0508 -1.0922,0.635 -1.27,1.2446 -0.8382,2.286 -1.8796,4.4704 -2.8956,6.6802 -0.3302,0.7112 -0.6604,1.4224 -1.2192,2.1844 -0.4318,-0.635 -0.8128,-1.143 -1.1176,-1.7018 -1.27,-2.2098 -2.4892,-4.4704 -3.7338,-6.6802 -0.2794,-0.4826 -0.5588,-0.9398 -0.8382,-1.3716 -0.2032,-0.3048 -0.4826,-0.4064 -0.8128,-0.4064 -1.3208,0 -2.667,0.0254 -3.9878,0.0508 -0.1524,0 -0.2794,0.0254 -0.508,0.0762 0.1016,0.254 0.1778,0.4572 0.2794,0.635 0.7112,1.143 0.889,2.8702 0.889,4.2164 0.0254,1.651 0.0254,3.2766 0,4.9276 0,1.9812 -0.0254,3.9878 -0.0508,5.969 0,1.1938 -0.3048,2.3114 -0.889,3.3528 -0.0762,0.1524 -0.1016,0.3302 -0.1524,0.4826 0.127,0.0762 0.1778,0.1016 0.2286,0.1016 1.5494,0.0254 3.0988,0.0254 4.6482,0.0254 0.1524,-0.0254 0.2794,-0.1016 0.4318,-0.1778 -0.635,-1.1938 -1.0922,-2.413 -1.0922,-3.7338 0,-1.524 0,-3.0226 0,-4.5466 0,-0.127 -0.0508,-0.3302 0.2032,-0.4064 0.0508,0.0508 0.1016,0.127 0.1524,0.2032 1.3208,2.1844 2.6162,4.3942 3.9624,6.5786 0.254,0.4572 0.5588,0.9144 0.8636,1.3462 0.127,0.1524 0.2794,0.2032 0.4318,0.2032 0.1524,0 0.3302,-0.0762 0.4572,-0.254 0.254,-0.4826 0.508,-0.9652 0.7366,-1.4478 1.2192,-2.667 2.4384,-5.3086 3.7338,-7.9502 0.2794,-0.5842 0.6096,-1.1684 1.016,-1.905 0.0762,0.3302 0.127,0.4572 0.127,0.6096 -0.0254,2.5908 0,5.1816 -0.0508,7.7724 0,1.0414 -0.254,2.0574 -0.7874,2.9972 -0.0762,0.1778 -0.1016,0.4064 -0.1778,0.635 0.2032,0.0254 0.3048,0.0762 0.4318,0.0762 2.413,0 4.8006,0 7.2136,0 0.127,0 0.254,-0.0762 0.4318,-0.127 -0.2032,-0.4826 -0.381,-0.889 -0.5588,-1.2954 z m -16.51,-11.2522 -0.0254,0.0762 -0.0254,-0.0762 z m -0.6858,1.9304 c -0.0508,0 -0.127,0 -0.1778,0 0.127,-0.3302 0.4318,-0.5842 0.1778,-1.0668 0.0762,0.0254 0.1524,0.0254 0.2286,0.0254 0.127,0.1778 0.254,0.381 0.381,0.5588 -0.2032,0.1524 -0.4064,0.3302 -0.6096,0.4826 z m 0.5588,-2.9464 c 0.0254,0.1524 0.0254,0.3302 0.0508,0.5334 -0.1778,-0.254 -0.2032,-0.254 -0.0508,-0.5334 z m -0.3048,1.143 c -0.2032,0.0508 -0.381,0.0762 -0.5334,0.1524 -0.127,0.0508 -0.2286,0.1778 -0.3302,0.2794 -0.0762,-0.3048 -0.127,-0.5588 0.2032,-0.762 0.0508,-0.0254 0.0254,-0.2032 0.0508,-0.3302 0.0508,-0.0508 0.1016,-0.1016 0.1524,-0.1778 0.381,0.1524 0.1524,0.5842 0.4572,0.8382 z m -0.4572,-0.8636 c -0.0508,0 -0.1016,0 -0.1524,0 0.0508,-0.0508 0.1016,-0.1016 0.127,-0.1524 0,0.0508 0.0254,0.1016 0.0254,0.1524 z m -0.2032,0.0254 c 0,0.0508 0,0.127 0.0254,0.1778 -0.0762,0 -0.127,0 -0.1778,0 0,-0.0508 0,-0.127 0,-0.1778 0.0508,0 0.1016,0 0.1524,0 z m 0.0762,-1.1176 c -0.0254,0.0254 -0.0508,0.1016 -0.1016,0.127 -0.0254,0.0254 -0.0762,0.0254 -0.127,0.0254 0.0254,-0.0508 0.0508,-0.1016 0.0762,-0.127 0.0508,-0.0508 0.1016,-0.0254 0.1524,-0.0254 z m -0.3302,-0.4572 c 0.0254,0 0.0508,-0.0254 0.0762,-0.0254 0,0 0.0254,0.0254 0.0254,0.0508 -0.0254,0 -0.0508,0.0254 -0.1016,0.0508 0,-0.0254 0,-0.0508 0,-0.0762 z m -0.508,-0.2794 c 0,0.0254 0,0.0508 -0.0254,0.0762 -0.0254,0 -0.0508,0.0254 -0.0762,0.0254 0.0254,-0.0254 0.0508,-0.0762 0.1016,-0.1016 z m -0.1778,0.1524 c 0.1524,0.1778 0.2794,0.3556 0.4064,0.5334 0.1016,0.0762 0.2286,0.1524 0.3302,0.2032 0.0508,0.3048 0.1778,0.6096 0.0508,0.9398 -0.0762,-0.0762 -0.1778,-0.127 -0.1778,-0.1778 -0.0254,-0.4064 -0.2794,-0.5588 -0.635,-0.6096 -0.3048,-0.508 -0.3048,-0.5334 0.0254,-0.889 z m -0.0254,0.9398 c 0.0508,0.1778 0.0762,0.3556 0.127,0.5588 -0.381,-0.1778 -0.1778,-0.381 -0.127,-0.5588 z m -0.5588,-0.1778 c 0.0762,0.0254 0.1524,0.0762 0.2032,0.1016 -0.0762,0.127 -0.1016,0.1778 -0.127,0.2286 -0.0508,-0.0762 -0.1016,-0.127 -0.1524,-0.2032 0,-0.0254 0.0762,-0.127 0.0762,-0.127 z m 0.508,1.3462 c 0.2286,0.1016 0.4318,0.2286 0.254,0.5334 -0.2032,0 -0.4064,0 -0.7112,0 0.2032,-0.2286 0.3302,-0.381 0.4572,-0.5334 z m -0.1778,1.0414 -0.0508,-0.0508 h 0.0762 z m 0.4826,0.6096 c 0,-0.381 0.3048,-0.508 0.508,-0.7366 0.0508,0.0508 0.1016,0.1016 0.1524,0.1524 0.2286,0.2794 0.2286,0.2794 -0.1016,0.5842 -0.0762,0 -0.1524,0 -0.2032,0 -0.127,0 -0.254,0 -0.3556,0 z m 0.5334,0.8382 c 0.0254,0 0.0508,0 0.0762,0 0,-0.1778 0.0762,-0.254 0.1778,-0.254 0.0508,0 0.1016,0 0.1524,0.0254 0.0508,0.0508 0.1016,0.127 0.1524,0.1778 0,0.0762 0,0.127 -0.0254,0.1778 -0.1524,-0.0508 -0.3048,-0.1016 -0.4572,-0.127 -0.0254,0 -0.0508,0 -0.0762,0 z m 0.5842,0.1524 c 0.2032,0 0.381,0 0.5842,0 0.0762,-0.127 0.1524,-0.2286 0.3556,-0.508 -0.0254,0.3556 -0.0254,0.5334 -0.0508,0.6858 -0.0508,0 -0.0762,0 -0.127,-0.0254 -0.1016,0.0762 -0.2032,0.1016 -0.2794,0.1016 -0.1778,0 -0.3302,-0.127 -0.4826,-0.254 z m 0.6096,-0.889 c 0.0508,-0.254 0.0508,-0.4826 0.1016,-0.7366 0.0508,-0.1778 0.1524,-0.3556 0.3556,-0.3556 0.0508,0 0.0762,0.0254 0.127,0.0254 -0.0254,0.2286 -0.0508,0.4064 -0.0762,0.6096 -0.1778,0.1524 -0.1778,0.4826 -0.508,0.4572 z m 0.5334,-0.4318 c 0.1524,-0.0254 0.2794,-0.0508 0.4826,-0.0762 -0.0762,0.3048 -0.127,0.5334 -0.2032,0.8382 -0.254,-0.254 -0.254,-0.508 -0.2794,-0.762 z m 0.5842,2.2606 c -0.0254,-0.0254 -0.0762,-0.0762 -0.127,-0.1016 0.0254,-0.0254 0.0508,-0.0762 0.0762,-0.1016 0.0508,0.0508 0.0762,0.0762 0.1016,0.127 0,0.0254 -0.0254,0.0508 -0.0508,0.0762 z m 0.2032,-1.143 c 0.0508,0 0.0762,0.0254 0.127,0.0254 -0.0254,0.0254 -0.0508,0.0762 -0.0762,0.1016 0,-0.0254 -0.0254,-0.0762 -0.0508,-0.127 z m 1.3208,1.8796 c -0.0254,0 -0.0508,-0.0254 -0.1778,-0.0762 0.127,-0.0508 0.1524,-0.0762 0.1778,-0.0508 0.127,0 0.2286,0.0254 0.3302,0.0508 0.0254,0 0,0.0762 0,0.0762 -0.1016,0 -0.2286,0 -0.3302,0 z m 0.4826,1.2446 c -0.0254,0 -0.0762,0.0254 -0.1016,0.0254 -0.1016,0 -0.1524,-0.0762 -0.1778,-0.1778 0,-0.0508 0.0508,-0.1524 0.0762,-0.1524 0.1016,0.0254 0.2032,0.0762 0.3302,0.127 -0.0762,0.1016 -0.1016,0.1778 -0.127,0.1778 z m 0.889,-0.6858 h -0.0254 c 0.1016,0.0254 0.1778,0.0254 0.2794,0.0254 -0.0254,0.0254 -0.0762,0.0508 -0.127,0.0508 -0.0254,0 -0.0762,-0.0254 -0.127,-0.0762 z m 0.3048,0.0254 c 0,-0.0508 0,-0.1016 0,-0.1524 0.0762,0.0508 0.127,0.1016 0.1778,0.127 -0.0508,0 -0.1016,0 -0.1778,0.0254 z m 9.6012,1.6256 c -0.0508,0 -0.0762,-0.0254 -0.127,-0.0762 0,0 0.2032,0.0508 0.2032,0.0508 -0.0254,0.0254 -0.0508,0.0508 -0.0762,0.0254 z m -1.5748,-2.2098 c 0.2286,0 0.4572,0 0.6858,0 0,0.0762 0,0.127 0.0254,0.1778 -0.2032,0.1778 -0.4064,0.3556 -0.5842,0.5334 -0.0508,-0.2286 -0.0762,-0.4826 -0.127,-0.7112 z m -0.0254,-3.7592 c 0.1016,0 0.2286,0 0.3302,0 -0.0508,0.1016 -0.1016,0.2286 -0.1778,0.3302 -0.0508,-0.1016 -0.1016,-0.2286 -0.1524,-0.3302 z m 0.1778,1.8034 c -0.127,-0.1778 -0.2794,-0.3556 -0.4064,-0.5334 l 0.0254,0.0254 c 0.0254,-0.1016 0.0254,-0.2032 0.0508,-0.3302 0.1016,0.0762 0.254,0.1016 0.2794,0.1778 0.0254,0.2286 0.0254,0.4572 0.0508,0.6604 z m 0,0.0762 c 0.0762,0.0508 0.1524,0.1016 0.2286,0.127 -0.0762,0.0762 -0.127,0.1778 -0.1778,0.1778 -0.1524,-0.0254 -0.2794,-0.0762 -0.4064,-0.1016 0.1016,-0.0762 0.2286,-0.1524 0.3556,-0.2032 z m 0.762,-2.6416 c 0.1016,0.0508 0.2286,0.127 0.3302,0.1778 -0.1016,0.0508 -0.2286,0.1016 -0.3302,0.1778 0,-0.127 0,-0.2286 0,-0.3556 z m 0.4826,1.2954 c -0.2794,-0.0254 -0.5842,-0.0254 -0.8636,-0.0254 0.1778,-0.2032 0.2794,-0.3302 0.381,-0.3302 0.1016,0 0.2286,0.127 0.4826,0.3556 z m 0.2032,0.0762 c 0,0.0254 0,0.0762 -0.0254,0.127 0,-0.0254 -0.0254,-0.0254 -0.0508,-0.0508 -0.0254,-0.0254 -0.0254,-0.0762 -0.0508,-0.127 0.0508,0.0254 0.0762,0.0254 0.127,0.0508 z m -0.381,2.7178 c 0.0508,0.2032 0.0762,0.3556 0.1016,0.5334 -0.2286,-0.0508 -0.4318,-0.0762 -0.6096,-0.1016 0.1524,-0.127 0.3048,-0.254 0.508,-0.4318 z m -0.1016,-1.2192 c 0.0762,0 0.1524,0 0.2286,0 0,0.0254 0,0.0508 0,0.0508 -0.0762,0 -0.1524,-0.0254 -0.2286,-0.0508 z m -0.6096,-1.0922 c 0.0254,0 0.0762,0 0.1016,0 0.1778,0 0.3556,0.0254 0.508,0.0254 0.2032,0.4064 0.1016,0.7366 -0.1016,1.0414 -0.1016,-0.0254 -0.2286,-0.0508 -0.2794,-0.1016 -0.1016,-0.2286 -0.1778,-0.4572 -0.254,-0.6858 l 0.0254,0.0254 c -0.1016,-0.1016 -0.1524,-0.254 0,-0.3048 z m 0.3048,1.6002 c -0.0762,0.1016 -0.1778,0.2032 -0.254,0.3048 -0.0762,0.0762 -0.127,0.1524 -0.2032,0.2286 -0.1016,-0.0508 -0.1778,-0.127 -0.2794,-0.1778 0.0508,-0.1016 0.1016,-0.254 0.1778,-0.2794 0.1778,-0.0508 0.381,-0.0508 0.5588,-0.0762 z m -0.3048,2.5146 c -0.0508,0.1778 -0.1778,0.2794 -0.381,0.2794 0.0762,-0.1524 0.1778,-0.2794 0.381,-0.2794 z m 0.2032,0.5588 c 0.127,-0.127 0.2286,-0.254 0.3556,-0.4064 0.1016,0.2032 0.2032,0.4064 0.3302,0.6096 -0.3048,0.0508 -0.635,0.1016 -0.9398,0.1524 -0.0762,0 -0.127,-0.0508 -0.2032,-0.0762 0.1778,-0.1016 0.3302,-0.1778 0.4572,-0.2794 z m 0.3556,-0.4318 c -0.1016,-0.1524 -0.2032,-0.2032 -0.3302,-0.2032 -0.0508,0 -0.127,0 -0.1778,0.0254 0,-0.0762 0,-0.1778 0.0254,-0.2286 0.2794,-0.2794 0.2286,-0.5588 0.1524,-0.889 0.254,0.2286 0.5842,0.2286 0.889,0.2286 -0.0762,0.127 -0.1524,0.2286 -0.254,0.381 0.1778,0.1778 0.3556,0.3302 0.508,0.508 -0.0508,0.0508 -0.0762,0.127 -0.1016,0.127 -0.254,0.0254 -0.4826,0.0254 -0.7112,0.0508 z m 0.6604,-2.1082 c 0,-0.0254 0.0508,-0.0762 0.1016,-0.1778 0.0762,0.0762 0.1524,0.127 0.1778,0.1778 0.0254,0.0508 -0.0762,0.127 -0.1016,0.2032 -0.0508,-0.0762 -0.127,-0.127 -0.1778,-0.2032 z m -0.0508,-1.4986 c 0,0 0.0254,-0.0508 0.0508,-0.0508 0.0254,0.0254 0.0762,0.0508 0.1016,0.1016 0,0 -0.0254,0.0254 -0.0254,0.0508 -0.0508,-0.0254 -0.1016,-0.0762 -0.127,-0.1016 z m -0.0254,-6.0452 c 0.0254,-0.1016 0.0508,-0.1778 0.0762,-0.3556 0.254,0.2032 0.381,0.4064 0.3048,0.6858 -0.0762,0 -0.1524,0 -0.2032,0 -0.0762,-0.127 -0.127,-0.2286 -0.1778,-0.3556 z m 0.1524,0.4318 c 0,0 0,0.0254 -0.0254,0.0508 0.0254,-0.0254 0.0254,-0.0508 0.0254,-0.0508 z m 0.1778,0.5842 c -0.127,0.254 -0.3302,0.2794 -0.5334,0.2794 0.127,-0.1524 0.2794,-0.2794 0.5334,-0.2794 z m -0.762,-0.4318 c 0,-0.0508 0.0762,-0.0762 0.1524,-0.127 0,0.1016 0.0508,0.1778 0.0254,0.254 -0.0254,0.0508 -0.1016,0.0762 -0.1778,0.1016 0,-0.0762 0,-0.1524 0,-0.2286 z m -0.6604,-0.2032 c 0.0762,0.127 0.0508,0.254 0,0.3556 0,-0.1016 0,-0.2286 0,-0.3556 z m -0.0254,-0.0508 c -0.2286,-0.0762 -0.2286,-0.2794 -0.2286,-0.4572 0.3556,0.0254 0.254,0.254 0.2286,0.4572 z m -0.4572,-1.143 c 0.0254,0.0508 0.0508,0.1016 0.0508,0.1524 -0.0254,-0.0254 -0.0508,-0.0508 -0.0762,-0.0762 0,0 0.0254,-0.0508 0.0254,-0.0762 z m -1.8796,1.397 v -0.0508 c 0,0.0254 0,0.0508 0,0.0508 z m 0.0508,0.7366 c 0.0762,0.0254 0.127,0.0762 0.2032,0.127 -0.0762,0.0254 -0.1778,0.0254 -0.254,0.0254 -0.0254,0 -0.0508,-0.0254 -0.0762,-0.0508 0.0508,-0.0508 0.1016,-0.1016 0.127,-0.1016 z m 0.381,2.3368 0.0508,-0.0508 v 0.0762 z m 0.4826,0.1524 c -0.0254,-0.0254 -0.0508,-0.0254 -0.0762,-0.0254 0,-0.0254 0.0254,-0.0508 0.0254,-0.0762 0.0254,0 0.0508,0 0.0508,0 0,0.0254 0,0.0508 0,0.1016 z m 0.4572,-1.3208 c 0.0508,0 0.127,0 0.1778,0 0,0.1016 0,0.2286 0,0.3556 -0.1524,-0.0762 -0.1778,-0.2286 -0.1778,-0.3556 z m 0.1778,0.381 c 0.0762,0 0.1524,0 0.2032,0 -0.0508,-0.127 -0.127,-0.254 -0.1778,-0.381 -0.0508,-0.0508 -0.0762,-0.1016 -0.127,-0.1016 -0.0254,0 -0.0762,0.0254 -0.1016,0.0762 -0.0762,0.1016 -0.2286,0.254 -0.2286,0.2286 -0.127,-0.0762 -0.2286,-0.1016 -0.3302,-0.1016 -0.1778,0 -0.3302,0.0762 -0.508,0.1778 -0.0508,0 -0.127,-0.0762 -0.2286,-0.127 0.0254,-0.0762 0.0508,-0.1778 0.0508,-0.254 0.0254,-0.254 0.0254,-0.3556 -0.127,-0.3556 -0.0508,0 -0.1524,0.0254 -0.254,0.0508 0.0762,-0.254 0.1016,-0.3302 0.2794,-0.3302 0.0508,0 0.1524,0 0.254,0.0254 0.2032,0.2794 0.3048,0.4064 0.4318,0.4064 0.1016,0 0.2286,-0.1016 0.4572,-0.254 h 0.0508 -0.0508 l -0.0254,-0.0254 c -0.381,-0.2032 -0.6096,-0.508 -0.6858,-0.9398 0.1778,0 0.3556,-0.0254 0.5334,-0.0508 -0.4064,-0.4572 -0.4064,-0.4826 0.0762,-0.9906 0.127,0.0762 0.2286,0.3048 0.381,0.3048 0.0508,0 0.1016,0 0.1778,-0.0508 0.127,0.2032 0.254,0.4064 0.3556,0.6096 0.1524,0 0.2794,0.0254 0.4064,0.0254 0.2794,0.2286 0.3302,0.5588 0.3302,0.9144 -0.127,0.127 -0.0508,0.254 0,0.381 0,-0.127 0,-0.254 0,-0.4064 0.1778,-0.1016 0.3556,-0.2286 0.5334,-0.3556 0.0254,0.3556 0.0254,0.6858 0.0508,1.0922 0.1524,-0.127 0.254,-0.2032 0.3556,-0.3048 0.1016,0.4064 -0.0254,0.762 -0.2032,1.143 l 0.0254,-0.0254 c 0.0254,0.2032 -0.0254,0.4318 0.1778,0.5842 0,0.254 -0.127,0.4064 -0.3556,0.508 -0.0508,-0.1778 -0.127,-0.381 -0.1778,-0.5588 0.2032,-0.3048 -0.0254,-0.508 -0.2032,-0.7112 l 0.0254,-0.0254 c -0.2032,0.127 -0.2794,0.3302 -0.2286,0.5588 -0.254,0.1524 -0.254,0.1778 0,0.381 -0.0508,0.3302 -0.3556,0.2794 -0.5588,0.381 -0.0508,-0.127 -0.1016,-0.2032 -0.127,-0.3302 -0.0254,-0.127 -0.0254,-0.2794 -0.0508,-0.4318 0.0762,-0.0508 0.0508,-0.127 -0.0254,-0.2032 0,0.0508 0,0.127 0,0.1778 -0.0762,-0.0508 -0.127,-0.127 -0.2032,-0.1778 -0.1524,-0.0254 -0.3302,-0.0508 -0.6604,-0.127 0.2286,-0.1778 0.3556,-0.3048 0.4826,-0.4064 z m 0,1.524 c 0.0508,0.2032 0.1778,0.3048 0.381,0.3556 -0.0254,0.2032 -0.1016,0.2286 -0.2032,0.2286 -0.0762,0 -0.1524,0 -0.2286,0 -0.0254,0 -0.0508,0 -0.0762,0 0,0 -0.0508,-0.0254 -0.0762,-0.0508 -0.127,-0.254 0.0762,-0.381 0.2032,-0.5334 z m 0.1524,3.7338 c 0,0 -0.0254,0 -0.0508,0 0,0 0.0254,0 0.0508,0 z m 0.0254,1.016 c 0.0254,-0.0508 0.0762,-0.127 0.127,-0.2032 0,0 0.0254,0 0.0508,-0.0254 0.0254,0.0254 0.0254,0.0508 0.0254,0.0762 -0.0254,0.0762 -0.0508,0.1524 -0.0508,0.2286 -0.0508,-0.0254 -0.1016,-0.0508 -0.1524,-0.0762 z m 0.1778,0.6858 c 0,0 0,0 0,0 v 0.0508 z m 0.6604,2.8956 c -0.0508,-0.0508 -0.127,-0.0762 -0.2032,-0.127 -0.0254,-0.0254 -0.0254,-0.0508 -0.0508,-0.0762 -0.0508,-0.0254 -0.127,-0.0254 -0.2032,-0.0254 -0.0762,-0.254 -0.0762,-0.2794 -0.0508,-0.5842 0.0762,0.0762 0.5334,0.4572 0.5334,0.5588 0,0.0762 0,0.1778 -0.0254,0.254 z m 0.254,-1.143 c -0.0762,0.0254 -0.127,0.0508 -0.2032,0.0508 -0.1778,0 -0.2794,-0.1524 -0.381,-0.4826 0.127,0 0.2032,0.2032 0.3302,0.2032 0.0508,0 0.1016,-0.0254 0.1778,-0.127 0.0254,-0.0254 0.1524,0.0254 0.2286,0.0508 -0.0508,0.1016 -0.0762,0.254 -0.1524,0.3048 z m 0.2286,1.27 v -0.0762 l 0.0762,0.0254 z m 0.3048,0.635 c -0.0254,0 -0.1016,-0.0508 -0.1524,-0.0762 0.0508,-0.0762 0.0762,-0.1524 0.127,-0.2032 0.0254,0 0.1016,0.0508 0.1524,0.0762 -0.0254,0.0762 -0.0762,0.1524 -0.127,0.2032 z m 0.4826,-2.1336 c -0.127,-0.0508 -0.254,-0.0762 -0.381,-0.127 0.0254,-0.0254 0.0762,-0.0508 0.127,-0.0762 0.1016,-0.0762 0.3048,-0.254 0.3302,-0.2286 0.2286,0.1778 0,0.2794 -0.0762,0.4318 z m 0.2032,-8.0264 c -0.0254,-0.0508 -0.0762,-0.1016 -0.0762,-0.1524 0,-0.0508 0.0508,-0.1016 0.0508,-0.1524 0.0508,0.0254 0.0762,0.0508 0.1524,0.1016 -0.0508,0.0508 -0.1016,0.127 -0.127,0.2032 z"
         style="font-size:25.4px;line-height:1;font-family:Brotherland;-inkscape-font-specification:'Brotherland, Normal';letter-spacing:0px"
         id="path94224" />
      <path
         d="m 54.870086,91.83842 c 1.0922,0 1.9812,-0.889 1.9812,-1.9812 0,-1.0922 -0.889,-1.9812 -1.9812,-1.9812 -1.0922,0 -1.9558,0.889 -1.9558,1.9812 0,1.0922 0.8636,1.9812 1.9558,1.9812 z"
         style="font-size:25.4px;line-height:1;font-family:Brotherland;-inkscape-font-specification:'Brotherland, Normal';letter-spacing:0px"
         id="path94226" />
      <path
         d="m 65.055397,71.92482 c 0.7366,1.3716 0.9144,2.8702 0.9398,4.3942 0.0254,3.175 0.0508,6.3246 0.0508,9.4742 -0.0254,1.7526 -0.2286,3.4798 -1.0414,5.0546 -0.0254,0.0762 -0.0254,0.1778 -0.0254,0.254 0.0508,0.0508 0.1016,0.127 0.1524,0.127 0.4572,0.0254 0.9144,0.0508 1.3716,0.0508 0.381,0 0.7874,-0.0254 1.1684,-0.1016 0.254,-0.0508 0.508,-0.0762 0.762,-0.0762 0.254,0 0.508,0.0254 0.7366,0.0762 0.3556,0.0508 0.6858,0.0762 0.9906,0.0762 0.3302,0 0.6604,-0.0254 0.9906,-0.0254 0.127,0 0.254,-0.1016 0.381,-0.0762 0.4572,0.127 0.9398,0.1524 1.397,0.127 0.381,0 0.762,0 1.143,0 0.1016,0 0.1778,0 0.2794,0 0.5588,0.0254 1.1176,0.0254 1.6764,0.0254 1.1176,0 2.2606,-0.0254 3.4544,-0.0254 0.0254,-0.3048 0.0508,-0.4826 0.0254,-0.6604 -0.0762,-0.8128 -0.2286,-1.6256 -0.2286,-2.4384 0,-1.0414 0.127,-2.0828 0.508,-3.0734 0.0254,-0.0762 0.0508,-0.1778 0.0508,-0.2794 0.0254,-0.2286 -0.127,-0.4572 -0.3556,-0.4318 -0.508,0.0254 -0.9906,0.0762 -1.4478,0.4064 -0.9144,0.635 -1.6256,1.6002 -2.1336,2.5908 -0.254,0.4826 -0.635,0.7112 -1.143,0.7112 -0.6096,0.0254 -1.1938,0.0508 -1.8034,0.0508 -0.7112,0 -1.016,-0.2286 -1.0414,-0.9398 -0.0762,-1.0414 -0.0762,-2.0828 -0.0508,-3.1242 0,-0.7874 0.6858,-1.7272 1.524,-1.7272 0.6604,0 1.143,0.5842 1.524,1.0414 0.1524,0.1524 0.3048,0.2286 0.4826,0.2286 0.0508,0 0.127,0 0.2032,-0.0254 0.1778,-0.0254 0.3556,-0.1524 0.4826,-0.254 0.7366,-0.635 0.9398,-1.9558 0.4572,-2.8956 -0.4826,-0.9398 -1.016,-1.143 -2.0066,-1.143 -0.4318,0 -0.8636,0.0508 -1.27,0.3048 -0.2286,0.1524 -0.508,0.254 -0.762,0.3302 -0.1016,0.0508 -0.2032,0.0508 -0.2794,0.0508 -0.2286,0 -0.3556,-0.1524 -0.3556,-0.4826 0,-1.016 0.0254,-2.0066 0.0508,-3.0226 0.0254,-0.3556 0.0762,-0.6858 0.127,-1.0414 0.0762,-0.5588 0.4318,-0.8636 1.016,-0.9144 0.1016,0 0.2286,0 0.3302,0 0.2032,0 0.4064,0 0.635,0 0.0508,0 0.1016,0 0.1524,0 0.254,0 0.4826,-0.0254 0.6604,-0.0254 0.4826,0 0.6858,0.1524 1.2954,1.1684 0.5588,1.016 1.7526,2.5654 3.048,2.5654 0.2032,0 0.4064,-0.0254 0.6096,-0.1016 0.1524,-0.7874 -0.381,-1.4732 -0.381,-2.2098 0,-0.762 -0.127,-1.524 -0.1016,-2.2606 0.0508,-0.7366 0.1524,-1.4732 0.2286,-2.2606 h -13.9954 c -0.0508,0 -0.1016,0 -0.1524,0 -0.1778,0 -0.3302,0.0254 -0.4064,0.254 0.0254,0.0762 0.0254,0.1778 0.0762,0.254 z m 3.2512,8.2042 c 0.1778,0.1778 0.3556,0.3302 0.5334,0.4826 0.1778,-0.1524 0.0508,-0.3556 0.127,-0.508 0.0254,-0.0762 0.1524,-0.127 0.254,-0.1778 0.0508,0.254 0.1016,0.508 0.1778,0.7366 v 0.0254 c -0.1016,0.127 -0.1016,0.254 0,0.381 0,0.0508 0,0.127 -0.0254,0.1778 0.0762,0.0254 0.127,0.0508 0.1778,0.0508 -0.0508,0.0508 -0.1016,0.1016 -0.1778,0.1524 -0.7874,0 -1.016,-0.635 -1.0668,-1.3208 z m 0.1524,-3.429 c 0.0762,-0.3048 0.254,-0.508 0.5588,-0.5334 0,0.2794 0.2032,0.381 0.381,0.5334 l -0.0254,0.0254 0.0508,-0.0254 c 0.0508,0.1778 0.0254,0.3048 -0.1778,0.3302 -0.0508,0 -0.1016,0 -0.1524,0 -0.1016,0 -0.2032,0 -0.3048,0 -0.1016,-0.127 -0.2032,-0.2286 -0.3302,-0.3302 z m 0.9398,5.1308 c 0.0762,0 0.1524,-0.0254 0.2286,-0.0254 -0.2286,0.254 0.127,0.5588 -0.2286,0.7366 -0.0508,-0.0508 -0.1016,-0.0508 -0.1524,-0.0508 -0.1524,0 -0.2286,0.1778 -0.381,0.254 -0.0508,-0.1016 -0.127,-0.2286 -0.1778,-0.3556 0.254,-0.1016 0.381,-0.4318 0.7112,-0.5588 z m -1.2954,-3.0734 c 0.0508,-0.127 0.1016,-0.2286 0.1524,-0.3302 h 0.0254 c 0.1016,0.0508 0.1524,0.1016 0.2286,0.1016 0.1016,0 0.1778,-0.1016 0.3302,-0.3048 0.2032,0.127 0.381,0.254 0.2286,0.5334 -0.1524,0.0508 -0.2794,0.0762 -0.4318,0.0762 -0.1778,0 -0.3556,-0.0254 -0.5334,-0.0762 z m 0.9906,0.7874 c 0.1524,-0.0762 0.3048,-0.1524 0.4826,-0.1778 0.0762,-0.0254 0.254,0.0762 0.2794,0.1524 0.0254,0.127 -0.0762,0.1778 -0.2032,0.2032 -0.0508,0.2032 -0.0762,0.2794 -0.1524,0.2794 -0.0508,0 -0.127,-0.0508 -0.2794,-0.1016 -0.0508,-0.127 -0.1016,-0.2286 -0.127,-0.3556 z m -0.889,5.588 c 0.508,0.2032 0.9144,0.4318 1.3208,0.635 l -1.2192,-0.1524 c -0.0254,-0.127 -0.0508,-0.254 -0.1016,-0.4826 z m 1.9812,-3.9116 v -0.3302 c 0.2032,0 0.3556,0.0254 0.4826,0.2032 -0.1524,0.0508 -0.3302,0.0762 -0.4826,0.127 z m -2.159,-4.4196 0.4064,-0.1016 v 0.4572 c -0.1524,-0.1524 -0.254,-0.2286 -0.4064,-0.3556 z m 1.7018,3.81 c 0.0508,0 0.0762,0 0.127,0 0.2032,0 0.2286,0.127 0.2794,0.2286 -0.1016,-0.0508 -0.2286,-0.127 -0.4064,-0.2286 z m -1.8288,-2.8956 c 0.0254,0.0762 0.0762,0.1524 0.1016,0.2032 0,0.0254 -0.1016,0.1016 -0.127,0.0762 -0.0508,-0.0508 -0.1016,-0.127 -0.127,-0.1778 0.0254,-0.0254 0.0762,-0.0508 0.1524,-0.1016 z m 0.6604,5.8674 c 0.0508,-0.0254 0.0762,-0.0762 0.127,-0.0762 0.0508,0 0.1016,0.0508 0.127,0.1016 0.0254,0.0254 -0.0254,0.0762 -0.0762,0.1524 -0.0508,-0.0508 -0.127,-0.1016 -0.1778,-0.1778 z m 1.2446,-0.3302 0.1524,0.1524 c -0.0508,0.0508 -0.1016,0.0762 -0.127,0.127 -0.0254,-0.0762 -0.0762,-0.1524 -0.1016,-0.2286 0,-0.0254 0.0762,-0.0508 0.0762,-0.0508 z m -2.1336,0.0762 c 0.0254,-0.0254 0.1016,-0.0762 0.127,-0.0762 0.0508,0.0254 0.0762,0.0762 0.1016,0.127 -0.0508,0.0254 -0.1016,0.0762 -0.127,0.0762 -0.0508,-0.0254 -0.0762,-0.1016 -0.1016,-0.127 z m 1.7526,-2.6162 c 0.0762,0.1016 0.1016,0.2286 0,0.3302 z m 0.635,-2.1082 c 0.0254,-0.0508 0.0762,-0.1016 0.127,-0.1016 0.0254,0 0.0762,0.0254 0.127,0.0762 -0.0762,0 -0.1778,0.0254 -0.254,0.0254 z m -0.0762,3.7846 c 0.0762,0.0254 0.1524,0.0254 0.2032,0.0508 -0.0508,0.0254 -0.127,0.0762 -0.1778,0.1016 -0.0254,-0.0508 -0.0254,-0.1016 -0.0254,-0.1524 z m -1.1684,-5.3086 v 0.3302 c -0.1016,-0.1016 -0.0508,-0.2032 0,-0.3302 z m 0.9906,-0.4826 0.1524,0.1524 c -0.0508,0.0254 -0.0762,0.0508 -0.127,0.0762 0,-0.0762 -0.0254,-0.1524 -0.0254,-0.2286 z m -2.032,5.4102 c 0.1016,0.0254 0.1778,0.0254 0.254,0.0508 0,0.0254 -0.0254,0.0762 -0.0254,0.1016 z m 0.7366,-3.81 c 0.0508,-0.0254 0.1016,-0.0508 0.127,-0.0508 0.0762,0 0.127,0.0254 0.1778,0.0508 z m -0.6096,10.0838 v -0.0762 h 0.1524 v 0.0762 z m 1.0922,-0.3048 c 0.0254,0.0254 0.0254,0.0762 0.0254,0.0762 0,0.0254 -0.0508,0.0254 -0.0762,0.0508 0,-0.0254 -0.0254,-0.0508 -0.0254,-0.0762 0.0254,-0.0254 0.0508,-0.0254 0.0762,-0.0508 z m -0.635,-13.0556 c 0.0254,0.0254 0.0762,0.0254 0.1016,0.0254 -0.0254,0.0254 -0.0508,0.0508 -0.0762,0.0508 0,-0.0254 0,-0.0508 -0.0254,-0.0762 z m 0.7112,11.1506 -0.0254,0.0508 -0.0508,-0.0508 z m 0.2794,-3.4544 0.0254,-0.0254 c -0.0254,0.0508 -0.0254,0.0762 -0.0508,0.1016 0,-0.0254 0,-0.0508 0.0254,-0.0762 z m -0.2794,4.064 0.0254,0.0508 h -0.0508 z m 0.4826,-9.1694 c 0,-0.0254 0.0254,-0.0254 0.0254,-0.0508 v 0.1016 c 0,-0.0254 -0.0254,-0.0508 -0.0254,-0.0508 z m -1.8288,-1.4732 c 0.0254,0 0.0254,-0.0254 0.0508,-0.0508 0,0.0254 0,0.0254 -0.0254,0.0508 z"
         style="font-size:25.4px;line-height:1;font-family:Brotherland;-inkscape-font-specification:'Brotherland, Normal';letter-spacing:0px"
         id="path94228" />
      <path
         d="m 83.470375,91.83842 c 1.0922,0 1.9812,-0.889 1.9812,-1.9812 0,-1.0922 -0.889,-1.9812 -1.9812,-1.9812 -1.0922,0 -1.9558,0.889 -1.9558,1.9812 0,1.0922 0.8636,1.9812 1.9558,1.9812 z"
         style="font-size:25.4px;line-height:1;font-family:Brotherland;-inkscape-font-specification:'Brotherland, Normal';letter-spacing:0px"
         id="path94230" />
      <path
         d="m 112.29929,77.08102 c 0.0762,0 0.1524,0 0.254,0 h -0.0254 c 0.0762,-0.127 0.127,-0.254 0.2032,-0.381 -0.254,-0.127 -0.5334,-0.254 -0.7874,-0.381 0,0.3556 0,0.6604 0,0.9652 0.127,-0.0762 0.254,-0.1524 0.3556,-0.2032 z m 0.2286,0 c -0.0762,0 -0.1524,0 -0.2032,0 0.0254,-0.0508 0.0508,-0.0508 0.1016,-0.0508 0.0254,0 0.0762,0 0.1016,0.0508 z m -1.0668,-1.4224 c -0.1524,-0.1016 -0.3048,-0.2032 -0.4318,-0.2794 0.0508,0.2794 0.0762,0.381 0.1778,0.381 0.0508,0 0.127,-0.0254 0.254,-0.1016 z m -0.4318,-0.2794 c 0,-0.0254 0,-0.0254 0,-0.0508 -0.0254,0 -0.0254,0 -0.0254,0.0254 0,0 0.0254,0.0254 0.0254,0.0254 z m 0.6604,-0.0508 c 0.0762,-0.0254 0.1524,-0.0762 0.254,-0.127 -0.1016,0 -0.2032,0 -0.2794,0 0,0.0508 0.0254,0.1016 0.0254,0.127 z m 0.2286,-0.127 c 0.0254,0 0.0508,0 0.0508,0 0,0 -0.0254,0 -0.0508,0 z m -13.995401,1.4986 -0.0254,-0.0254 -0.0254,0.0508 z m 18.135601,13.1064 c -0.4318,-1.0922 -0.508,-2.2606 -0.4826,-3.429 0.0254,-1.8288 -0.0762,-3.6576 0,-5.5118 0.0508,-1.5748 -0.0254,-3.1496 -0.0254,-4.7244 -0.0254,-1.4986 0.254,-2.9464 0.9652,-4.2926 0.0508,-0.0762 0.0254,-0.1778 0.0508,-0.3302 -0.2286,-0.0254 -0.4318,-0.0762 -0.635,-0.0762 -1.8288,-0.0254 -3.6576,-0.0254 -5.5118,-0.0254 -0.1524,0 -0.3048,0.0254 -0.4572,0.0254 -0.7112,0.0508 -1.0922,0.635 -1.27,1.2446 -0.8382,2.286 -1.8796,4.4704 -2.8956,6.6802 -0.3302,0.7112 -0.6604,1.4224 -1.2192,2.1844 -0.4318,-0.635 -0.8128,-1.143 -1.1176,-1.7018 -1.27,-2.2098 -2.4892,-4.4704 -3.733801,-6.6802 -0.2794,-0.4826 -0.5588,-0.9398 -0.8382,-1.3716 -0.2032,-0.3048 -0.4826,-0.4064 -0.8128,-0.4064 -1.3208,0 -2.667,0.0254 -3.9878,0.0508 -0.1524,0 -0.2794,0.0254 -0.508,0.0762 0.1016,0.254 0.1778,0.4572 0.2794,0.635 0.7112,1.143 0.889,2.8702 0.889,4.2164 0.0254,1.651 0.0254,3.2766 0,4.9276 0,1.9812 -0.0254,3.9878 -0.0508,5.969 0,1.1938 -0.3048,2.3114 -0.889,3.3528 -0.0762,0.1524 -0.1016,0.3302 -0.1524,0.4826 0.127,0.0762 0.1778,0.1016 0.2286,0.1016 1.5494,0.0254 3.0988,0.0254 4.6482,0.0254 0.1524,-0.0254 0.2794,-0.1016 0.4318,-0.1778 -0.635,-1.1938 -1.0922,-2.413 -1.0922,-3.7338 0,-1.524 0,-3.0226 0,-4.5466 0,-0.127 -0.0508,-0.3302 0.2032,-0.4064 0.0508,0.0508 0.1016,0.127 0.1524,0.2032 1.3208,2.1844 2.616201,4.3942 3.962401,6.5786 0.254,0.4572 0.5588,0.9144 0.8636,1.3462 0.127,0.1524 0.2794,0.2032 0.4318,0.2032 0.1524,0 0.3302,-0.0762 0.4572,-0.254 0.254,-0.4826 0.508,-0.9652 0.7366,-1.4478 1.2192,-2.667 2.4384,-5.3086 3.7338,-7.9502 0.2794,-0.5842 0.6096,-1.1684 1.016,-1.905 0.0762,0.3302 0.127,0.4572 0.127,0.6096 -0.0254,2.5908 0,5.1816 -0.0508,7.7724 0,1.0414 -0.254,2.0574 -0.7874,2.9972 -0.0762,0.1778 -0.1016,0.4064 -0.1778,0.635 0.2032,0.0254 0.3048,0.0762 0.4318,0.0762 2.413,0 4.8006,0 7.2136,0 0.127,0 0.254,-0.0762 0.4318,-0.127 -0.2032,-0.4826 -0.381,-0.889 -0.5588,-1.2954 z m -16.510001,-11.2522 -0.0254,0.0762 -0.0254,-0.0762 z m -0.6858,1.9304 c -0.0508,0 -0.127,0 -0.1778,0 0.127,-0.3302 0.4318,-0.5842 0.1778,-1.0668 0.0762,0.0254 0.1524,0.0254 0.2286,0.0254 0.127,0.1778 0.254,0.381 0.381,0.5588 -0.2032,0.1524 -0.4064,0.3302 -0.6096,0.4826 z m 0.5588,-2.9464 c 0.0254,0.1524 0.0254,0.3302 0.0508,0.5334 -0.1778,-0.254 -0.2032,-0.254 -0.0508,-0.5334 z m -0.3048,1.143 c -0.2032,0.0508 -0.381,0.0762 -0.5334,0.1524 -0.127,0.0508 -0.2286,0.1778 -0.3302,0.2794 -0.0762,-0.3048 -0.127,-0.5588 0.2032,-0.762 0.0508,-0.0254 0.0254,-0.2032 0.0508,-0.3302 0.0508,-0.0508 0.1016,-0.1016 0.1524,-0.1778 0.381,0.1524 0.1524,0.5842 0.4572,0.8382 z m -0.4572,-0.8636 c -0.0508,0 -0.1016,0 -0.1524,0 0.0508,-0.0508 0.1016,-0.1016 0.127,-0.1524 0,0.0508 0.0254,0.1016 0.0254,0.1524 z m -0.2032,0.0254 c 0,0.0508 0,0.127 0.0254,0.1778 -0.0762,0 -0.127,0 -0.1778,0 0,-0.0508 0,-0.127 0,-0.1778 0.0508,0 0.1016,0 0.1524,0 z m 0.0762,-1.1176 c -0.0254,0.0254 -0.0508,0.1016 -0.1016,0.127 -0.0254,0.0254 -0.0762,0.0254 -0.127,0.0254 0.0254,-0.0508 0.0508,-0.1016 0.0762,-0.127 0.0508,-0.0508 0.1016,-0.0254 0.1524,-0.0254 z m -0.3302,-0.4572 c 0.0254,0 0.0508,-0.0254 0.0762,-0.0254 0,0 0.0254,0.0254 0.0254,0.0508 -0.0254,0 -0.0508,0.0254 -0.1016,0.0508 0,-0.0254 0,-0.0508 0,-0.0762 z m -0.508,-0.2794 c 0,0.0254 0,0.0508 -0.0254,0.0762 -0.0254,0 -0.0508,0.0254 -0.0762,0.0254 0.0254,-0.0254 0.0508,-0.0762 0.1016,-0.1016 z m -0.1778,0.1524 c 0.1524,0.1778 0.2794,0.3556 0.4064,0.5334 0.1016,0.0762 0.2286,0.1524 0.3302,0.2032 0.0508,0.3048 0.1778,0.6096 0.0508,0.9398 -0.0762,-0.0762 -0.1778,-0.127 -0.1778,-0.1778 -0.0254,-0.4064 -0.2794,-0.5588 -0.635,-0.6096 -0.3048,-0.508 -0.3048,-0.5334 0.0254,-0.889 z m -0.0254,0.9398 c 0.0508,0.1778 0.0762,0.3556 0.127,0.5588 -0.381,-0.1778 -0.1778,-0.381 -0.127,-0.5588 z m -0.5588,-0.1778 c 0.0762,0.0254 0.1524,0.0762 0.2032,0.1016 -0.0762,0.127 -0.1016,0.1778 -0.127,0.2286 -0.0508,-0.0762 -0.1016,-0.127 -0.1524,-0.2032 0,-0.0254 0.0762,-0.127 0.0762,-0.127 z m 0.508,1.3462 c 0.2286,0.1016 0.4318,0.2286 0.254,0.5334 -0.2032,0 -0.4064,0 -0.7112,0 0.2032,-0.2286 0.3302,-0.381 0.4572,-0.5334 z m -0.1778,1.0414 -0.0508,-0.0508 h 0.0762 z m 0.4826,0.6096 c 0,-0.381 0.3048,-0.508 0.508,-0.7366 0.0508,0.0508 0.1016,0.1016 0.1524,0.1524 0.2286,0.2794 0.2286,0.2794 -0.1016,0.5842 -0.0762,0 -0.1524,0 -0.2032,0 -0.127,0 -0.254,0 -0.3556,0 z m 0.5334,0.8382 c 0.0254,0 0.0508,0 0.0762,0 0,-0.1778 0.0762,-0.254 0.1778,-0.254 0.0508,0 0.1016,0 0.1524,0.0254 0.0508,0.0508 0.1016,0.127 0.1524,0.1778 0,0.0762 0,0.127 -0.0254,0.1778 -0.1524,-0.0508 -0.3048,-0.1016 -0.4572,-0.127 -0.0254,0 -0.0508,0 -0.0762,0 z m 0.5842,0.1524 c 0.2032,0 0.381,0 0.5842,0 0.0762,-0.127 0.1524,-0.2286 0.3556,-0.508 -0.0254,0.3556 -0.0254,0.5334 -0.0508,0.6858 -0.0508,0 -0.0762,0 -0.127,-0.0254 -0.1016,0.0762 -0.2032,0.1016 -0.2794,0.1016 -0.1778,0 -0.3302,-0.127 -0.4826,-0.254 z m 0.6096,-0.889 c 0.0508,-0.254 0.0508,-0.4826 0.1016,-0.7366 0.0508,-0.1778 0.1524,-0.3556 0.3556,-0.3556 0.0508,0 0.0762,0.0254 0.127001,0.0254 -0.0254,0.2286 -0.0508,0.4064 -0.0762,0.6096 -0.1778,0.1524 -0.1778,0.4826 -0.508,0.4572 z m 0.533401,-0.4318 c 0.1524,-0.0254 0.2794,-0.0508 0.4826,-0.0762 -0.0762,0.3048 -0.127,0.5334 -0.2032,0.8382 -0.254,-0.254 -0.254,-0.508 -0.2794,-0.762 z m 0.5842,2.2606 c -0.0254,-0.0254 -0.0762,-0.0762 -0.127,-0.1016 0.0254,-0.0254 0.0508,-0.0762 0.0762,-0.1016 0.0508,0.0508 0.0762,0.0762 0.1016,0.127 0,0.0254 -0.0254,0.0508 -0.0508,0.0762 z m 0.2032,-1.143 c 0.0508,0 0.0762,0.0254 0.127,0.0254 -0.0254,0.0254 -0.0508,0.0762 -0.0762,0.1016 0,-0.0254 -0.0254,-0.0762 -0.0508,-0.127 z m 1.3208,1.8796 c -0.0254,0 -0.0508,-0.0254 -0.1778,-0.0762 0.127,-0.0508 0.1524,-0.0762 0.1778,-0.0508 0.127,0 0.2286,0.0254 0.3302,0.0508 0.0254,0 0,0.0762 0,0.0762 -0.1016,0 -0.2286,0 -0.3302,0 z m 0.4826,1.2446 c -0.0254,0 -0.0762,0.0254 -0.1016,0.0254 -0.1016,0 -0.1524,-0.0762 -0.1778,-0.1778 0,-0.0508 0.0508,-0.1524 0.0762,-0.1524 0.1016,0.0254 0.2032,0.0762 0.3302,0.127 -0.0762,0.1016 -0.1016,0.1778 -0.127,0.1778 z m 0.889,-0.6858 h -0.0254 c 0.1016,0.0254 0.1778,0.0254 0.2794,0.0254 -0.0254,0.0254 -0.0762,0.0508 -0.127,0.0508 -0.0254,0 -0.0762,-0.0254 -0.127,-0.0762 z m 0.3048,0.0254 c 0,-0.0508 0,-0.1016 0,-0.1524 0.0762,0.0508 0.127,0.1016 0.1778,0.127 -0.0508,0 -0.1016,0 -0.1778,0.0254 z m 9.6012,1.6256 c -0.0508,0 -0.0762,-0.0254 -0.127,-0.0762 0,0 0.2032,0.0508 0.2032,0.0508 -0.0254,0.0254 -0.0508,0.0508 -0.0762,0.0254 z m -1.5748,-2.2098 c 0.2286,0 0.4572,0 0.6858,0 0,0.0762 0,0.127 0.0254,0.1778 -0.2032,0.1778 -0.4064,0.3556 -0.5842,0.5334 -0.0508,-0.2286 -0.0762,-0.4826 -0.127,-0.7112 z m -0.0254,-3.7592 c 0.1016,0 0.2286,0 0.3302,0 -0.0508,0.1016 -0.1016,0.2286 -0.1778,0.3302 -0.0508,-0.1016 -0.1016,-0.2286 -0.1524,-0.3302 z m 0.1778,1.8034 c -0.127,-0.1778 -0.2794,-0.3556 -0.4064,-0.5334 l 0.0254,0.0254 c 0.0254,-0.1016 0.0254,-0.2032 0.0508,-0.3302 0.1016,0.0762 0.254,0.1016 0.2794,0.1778 0.0254,0.2286 0.0254,0.4572 0.0508,0.6604 z m 0,0.0762 c 0.0762,0.0508 0.1524,0.1016 0.2286,0.127 -0.0762,0.0762 -0.127,0.1778 -0.1778,0.1778 -0.1524,-0.0254 -0.2794,-0.0762 -0.4064,-0.1016 0.1016,-0.0762 0.2286,-0.1524 0.3556,-0.2032 z m 0.762,-2.6416 c 0.1016,0.0508 0.2286,0.127 0.3302,0.1778 -0.1016,0.0508 -0.2286,0.1016 -0.3302,0.1778 0,-0.127 0,-0.2286 0,-0.3556 z m 0.4826,1.2954 c -0.2794,-0.0254 -0.5842,-0.0254 -0.8636,-0.0254 0.1778,-0.2032 0.2794,-0.3302 0.381,-0.3302 0.1016,0 0.2286,0.127 0.4826,0.3556 z m 0.2032,0.0762 c 0,0.0254 0,0.0762 -0.0254,0.127 0,-0.0254 -0.0254,-0.0254 -0.0508,-0.0508 -0.0254,-0.0254 -0.0254,-0.0762 -0.0508,-0.127 0.0508,0.0254 0.0762,0.0254 0.127,0.0508 z m -0.381,2.7178 c 0.0508,0.2032 0.0762,0.3556 0.1016,0.5334 -0.2286,-0.0508 -0.4318,-0.0762 -0.6096,-0.1016 0.1524,-0.127 0.3048,-0.254 0.508,-0.4318 z m -0.1016,-1.2192 c 0.0762,0 0.1524,0 0.2286,0 0,0.0254 0,0.0508 0,0.0508 -0.0762,0 -0.1524,-0.0254 -0.2286,-0.0508 z m -0.6096,-1.0922 c 0.0254,0 0.0762,0 0.1016,0 0.1778,0 0.3556,0.0254 0.508,0.0254 0.2032,0.4064 0.1016,0.7366 -0.1016,1.0414 -0.1016,-0.0254 -0.2286,-0.0508 -0.2794,-0.1016 -0.1016,-0.2286 -0.1778,-0.4572 -0.254,-0.6858 l 0.0254,0.0254 c -0.1016,-0.1016 -0.1524,-0.254 0,-0.3048 z m 0.3048,1.6002 c -0.0762,0.1016 -0.1778,0.2032 -0.254,0.3048 -0.0762,0.0762 -0.127,0.1524 -0.2032,0.2286 -0.1016,-0.0508 -0.1778,-0.127 -0.2794,-0.1778 0.0508,-0.1016 0.1016,-0.254 0.1778,-0.2794 0.1778,-0.0508 0.381,-0.0508 0.5588,-0.0762 z m -0.3048,2.5146 c -0.0508,0.1778 -0.1778,0.2794 -0.381,0.2794 0.0762,-0.1524 0.1778,-0.2794 0.381,-0.2794 z m 0.2032,0.5588 c 0.127,-0.127 0.2286,-0.254 0.3556,-0.4064 0.1016,0.2032 0.2032,0.4064 0.3302,0.6096 -0.3048,0.0508 -0.635,0.1016 -0.9398,0.1524 -0.0762,0 -0.127,-0.0508 -0.2032,-0.0762 0.1778,-0.1016 0.3302,-0.1778 0.4572,-0.2794 z m 0.3556,-0.4318 c -0.1016,-0.1524 -0.2032,-0.2032 -0.3302,-0.2032 -0.0508,0 -0.127,0 -0.1778,0.0254 0,-0.0762 0,-0.1778 0.0254,-0.2286 0.2794,-0.2794 0.2286,-0.5588 0.1524,-0.889 0.254,0.2286 0.5842,0.2286 0.889,0.2286 -0.0762,0.127 -0.1524,0.2286 -0.254,0.381 0.1778,0.1778 0.3556,0.3302 0.508,0.508 -0.0508,0.0508 -0.0762,0.127 -0.1016,0.127 -0.254,0.0254 -0.4826,0.0254 -0.7112,0.0508 z m 0.6604,-2.1082 c 0,-0.0254 0.0508,-0.0762 0.1016,-0.1778 0.0762,0.0762 0.1524,0.127 0.1778,0.1778 0.0254,0.0508 -0.0762,0.127 -0.1016,0.2032 -0.0508,-0.0762 -0.127,-0.127 -0.1778,-0.2032 z m -0.0508,-1.4986 c 0,0 0.0254,-0.0508 0.0508,-0.0508 0.0254,0.0254 0.0762,0.0508 0.1016,0.1016 0,0 -0.0254,0.0254 -0.0254,0.0508 -0.0508,-0.0254 -0.1016,-0.0762 -0.127,-0.1016 z m -0.0254,-6.0452 c 0.0254,-0.1016 0.0508,-0.1778 0.0762,-0.3556 0.254,0.2032 0.381,0.4064 0.3048,0.6858 -0.0762,0 -0.1524,0 -0.2032,0 -0.0762,-0.127 -0.127,-0.2286 -0.1778,-0.3556 z m 0.1524,0.4318 c 0,0 0,0.0254 -0.0254,0.0508 0.0254,-0.0254 0.0254,-0.0508 0.0254,-0.0508 z m 0.1778,0.5842 c -0.127,0.254 -0.3302,0.2794 -0.5334,0.2794 0.127,-0.1524 0.2794,-0.2794 0.5334,-0.2794 z m -0.762,-0.4318 c 0,-0.0508 0.0762,-0.0762 0.1524,-0.127 0,0.1016 0.0508,0.1778 0.0254,0.254 -0.0254,0.0508 -0.1016,0.0762 -0.1778,0.1016 0,-0.0762 0,-0.1524 0,-0.2286 z m -0.6604,-0.2032 c 0.0762,0.127 0.0508,0.254 0,0.3556 0,-0.1016 0,-0.2286 0,-0.3556 z m -0.0254,-0.0508 c -0.2286,-0.0762 -0.2286,-0.2794 -0.2286,-0.4572 0.3556,0.0254 0.254,0.254 0.2286,0.4572 z m -0.4572,-1.143 c 0.0254,0.0508 0.0508,0.1016 0.0508,0.1524 -0.0254,-0.0254 -0.0508,-0.0508 -0.0762,-0.0762 0,0 0.0254,-0.0508 0.0254,-0.0762 z m -1.8796,1.397 v -0.0508 c 0,0.0254 0,0.0508 0,0.0508 z m 0.0508,0.7366 c 0.0762,0.0254 0.127,0.0762 0.2032,0.127 -0.0762,0.0254 -0.1778,0.0254 -0.254,0.0254 -0.0254,0 -0.0508,-0.0254 -0.0762,-0.0508 0.0508,-0.0508 0.1016,-0.1016 0.127,-0.1016 z m 0.381,2.3368 0.0508,-0.0508 v 0.0762 z m 0.4826,0.1524 c -0.0254,-0.0254 -0.0508,-0.0254 -0.0762,-0.0254 0,-0.0254 0.0254,-0.0508 0.0254,-0.0762 0.0254,0 0.0508,0 0.0508,0 0,0.0254 0,0.0508 0,0.1016 z m 0.4572,-1.3208 c 0.0508,0 0.127,0 0.1778,0 0,0.1016 0,0.2286 0,0.3556 -0.1524,-0.0762 -0.1778,-0.2286 -0.1778,-0.3556 z m 0.1778,0.381 c 0.0762,0 0.1524,0 0.2032,0 -0.0508,-0.127 -0.127,-0.254 -0.1778,-0.381 -0.0508,-0.0508 -0.0762,-0.1016 -0.127,-0.1016 -0.0254,0 -0.0762,0.0254 -0.1016,0.0762 -0.0762,0.1016 -0.2286,0.254 -0.2286,0.2286 -0.127,-0.0762 -0.2286,-0.1016 -0.3302,-0.1016 -0.1778,0 -0.3302,0.0762 -0.508,0.1778 -0.0508,0 -0.127,-0.0762 -0.2286,-0.127 0.0254,-0.0762 0.0508,-0.1778 0.0508,-0.254 0.0254,-0.254 0.0254,-0.3556 -0.127,-0.3556 -0.0508,0 -0.1524,0.0254 -0.254,0.0508 0.0762,-0.254 0.1016,-0.3302 0.2794,-0.3302 0.0508,0 0.1524,0 0.254,0.0254 0.2032,0.2794 0.3048,0.4064 0.4318,0.4064 0.1016,0 0.2286,-0.1016 0.4572,-0.254 h 0.0508 -0.0508 l -0.0254,-0.0254 c -0.381,-0.2032 -0.6096,-0.508 -0.6858,-0.9398 0.1778,0 0.3556,-0.0254 0.5334,-0.0508 -0.4064,-0.4572 -0.4064,-0.4826 0.0762,-0.9906 0.127,0.0762 0.2286,0.3048 0.381,0.3048 0.0508,0 0.1016,0 0.1778,-0.0508 0.127,0.2032 0.254,0.4064 0.3556,0.6096 0.1524,0 0.2794,0.0254 0.4064,0.0254 0.2794,0.2286 0.3302,0.5588 0.3302,0.9144 -0.127,0.127 -0.0508,0.254 0,0.381 0,-0.127 0,-0.254 0,-0.4064 0.1778,-0.1016 0.3556,-0.2286 0.5334,-0.3556 0.0254,0.3556 0.0254,0.6858 0.0508,1.0922 0.1524,-0.127 0.254,-0.2032 0.3556,-0.3048 0.1016,0.4064 -0.0254,0.762 -0.2032,1.143 l 0.0254,-0.0254 c 0.0254,0.2032 -0.0254,0.4318 0.1778,0.5842 0,0.254 -0.127,0.4064 -0.3556,0.508 -0.0508,-0.1778 -0.127,-0.381 -0.1778,-0.5588 0.2032,-0.3048 -0.0254,-0.508 -0.2032,-0.7112 l 0.0254,-0.0254 c -0.2032,0.127 -0.2794,0.3302 -0.2286,0.5588 -0.254,0.1524 -0.254,0.1778 0,0.381 -0.0508,0.3302 -0.3556,0.2794 -0.5588,0.381 -0.0508,-0.127 -0.1016,-0.2032 -0.127,-0.3302 -0.0254,-0.127 -0.0254,-0.2794 -0.0508,-0.4318 0.0762,-0.0508 0.0508,-0.127 -0.0254,-0.2032 0,0.0508 0,0.127 0,0.1778 -0.0762,-0.0508 -0.127,-0.127 -0.2032,-0.1778 -0.1524,-0.0254 -0.3302,-0.0508 -0.6604,-0.127 0.2286,-0.1778 0.3556,-0.3048 0.4826,-0.4064 z m 0,1.524 c 0.0508,0.2032 0.1778,0.3048 0.381,0.3556 -0.0254,0.2032 -0.1016,0.2286 -0.2032,0.2286 -0.0762,0 -0.1524,0 -0.2286,0 -0.0254,0 -0.0508,0 -0.0762,0 0,0 -0.0508,-0.0254 -0.0762,-0.0508 -0.127,-0.254 0.0762,-0.381 0.2032,-0.5334 z m 0.1524,3.7338 c 0,0 -0.0254,0 -0.0508,0 0,0 0.0254,0 0.0508,0 z m 0.0254,1.016 c 0.0254,-0.0508 0.0762,-0.127 0.127,-0.2032 0,0 0.0254,0 0.0508,-0.0254 0.0254,0.0254 0.0254,0.0508 0.0254,0.0762 -0.0254,0.0762 -0.0508,0.1524 -0.0508,0.2286 -0.0508,-0.0254 -0.1016,-0.0508 -0.1524,-0.0762 z m 0.1778,0.6858 c 0,0 0,0 0,0 v 0.0508 z m 0.6604,2.8956 c -0.0508,-0.0508 -0.127,-0.0762 -0.2032,-0.127 -0.0254,-0.0254 -0.0254,-0.0508 -0.0508,-0.0762 -0.0508,-0.0254 -0.127,-0.0254 -0.2032,-0.0254 -0.0762,-0.254 -0.0762,-0.2794 -0.0508,-0.5842 0.0762,0.0762 0.5334,0.4572 0.5334,0.5588 0,0.0762 0,0.1778 -0.0254,0.254 z m 0.254,-1.143 c -0.0762,0.0254 -0.127,0.0508 -0.2032,0.0508 -0.1778,0 -0.2794,-0.1524 -0.381,-0.4826 0.127,0 0.2032,0.2032 0.3302,0.2032 0.0508,0 0.1016,-0.0254 0.1778,-0.127 0.0254,-0.0254 0.1524,0.0254 0.2286,0.0508 -0.0508,0.1016 -0.0762,0.254 -0.1524,0.3048 z m 0.2286,1.27 v -0.0762 l 0.0762,0.0254 z m 0.3048,0.635 c -0.0254,0 -0.1016,-0.0508 -0.1524,-0.0762 0.0508,-0.0762 0.0762,-0.1524 0.127,-0.2032 0.0254,0 0.1016,0.0508 0.1524,0.0762 -0.0254,0.0762 -0.0762,0.1524 -0.127,0.2032 z m 0.4826,-2.1336 c -0.127,-0.0508 -0.254,-0.0762 -0.381,-0.127 0.0254,-0.0254 0.0762,-0.0508 0.127,-0.0762 0.1016,-0.0762 0.3048,-0.254 0.3302,-0.2286 0.2286,0.1778 0,0.2794 -0.0762,0.4318 z m 0.2032,-8.0264 c -0.0254,-0.0508 -0.0762,-0.1016 -0.0762,-0.1524 0,-0.0508 0.0508,-0.1016 0.0508,-0.1524 0.0508,0.0254 0.0762,0.0508 0.1524,0.1016 -0.0508,0.0508 -0.1016,0.127 -0.127,0.2032 z"
         style="font-size:25.4px;line-height:1;font-family:Brotherland;-inkscape-font-specification:'Brotherland, Normal';letter-spacing:0px"
         id="path94232" />
      <path
         d="m 124.71139,90.720819 c -0.57151,-1.079502 -0.74084,-2.243671 -0.74084,-3.429006 0.0212,-3.005671 0,-6.011343 0.0212,-9.017014 0,-0.952502 0.127,-1.883836 0.59267,-2.751671 0.0635,-0.105834 0.10583,-0.232834 0.14816,-0.359834 0.0212,-0.105834 0.0212,-0.232834 0.0423,-0.402167 -0.65617,0 -1.24884,0 -1.86267,0 -1.43934,0 -2.87868,-0.02117 -4.33918,-0.02117 -0.0423,0 -0.0635,0 -0.10583,0 -0.14817,0 -0.29633,0.02117 -0.33867,0.275167 0.635,1.185335 0.86784,2.518837 0.86784,3.91584 -0.0212,2.836337 0,5.672675 -0.0212,8.53018 0,1.058335 -0.10583,2.095503 -0.635,3.048005 -0.10583,0.1905 -0.254,0.402167 -0.1905,0.656167 0.0847,0.04233 0.16933,0.08467 0.23283,0.08467 2.05317,0 4.10634,0 6.15951,0 0.0847,0 0.14817,-0.04233 0.27517,-0.08467 -0.0423,-0.148167 -0.0423,-0.3175 -0.10583,-0.4445 z m -2.11667,-10.01185 c -0.0847,0 -0.16934,0.02117 -0.23284,0.02117 0.0423,-0.04233 0.0635,-0.08467 0.10584,-0.08467 0.0423,0 0.0847,0.02117 0.127,0.0635 z m -0.3175,1.67217 c -0.0212,0 -0.0212,-0.02117 -0.0423,-0.04233 0.0212,0.02117 0.0212,0.02117 0.0423,0.04233 z m -0.0847,-3.132672 c -0.0212,-0.0635 -0.0212,-0.127 -0.0423,-0.1905 0.0423,0.04233 0.0847,0.08467 0.12701,0.127 -0.0212,0.02117 -0.0635,0.04233 -0.0847,0.0635 z m 0,2.222504 c 0,0.0635 -0.10584,0.127 -0.16934,0.1905 h -0.0423 0.0423 c -0.0212,0.127 -0.10583,0.1905 -0.1905,0.1905 -0.0423,0 -0.0847,0 -0.127,-0.02117 -0.0635,-0.105834 -0.10583,-0.211667 -0.14816,-0.317501 0.127,-0.0635 0.254,-0.105833 0.40216,-0.169334 0.0847,0 0.23284,0 0.23284,0.127001 z m -0.33867,2.582337 c -0.127,-0.127 -0.23283,-0.254 -0.33867,-0.381001 0.0423,-0.127 0.0635,-0.232833 0.10584,-0.359833 0.16933,0 0.29633,0.02117 0.3175,0.232833 0,0.0635 0.10583,0.127 0.1905,0.190501 -0.0212,0.0635 -0.0212,0.105833 -0.0212,0.169333 -0.0847,0.04233 -0.16933,0.08467 -0.254,0.148167 z m 0.0635,2.201337 -0.0212,0.04233 -0.0212,-0.04233 z m -0.16933,-0.486834 c 0,0.02117 -0.0423,0.02117 -0.0423,0.04233 -0.0212,-0.02117 -0.0423,-0.04233 -0.0635,-0.04233 0.0212,-0.02117 0.0635,-0.04233 0.0847,-0.0635 0.0212,0.02117 0.0212,0.0635 0.0212,0.0635 z m -0.40217,-6.03251 c -0.0847,-0.08467 -0.0635,-0.169333 -0.0212,-0.254 0,0.08467 0,0.169333 0.0212,0.254 z m -0.0212,0.656168 c -0.0847,0 -0.16933,0 -0.254,0 0.0423,-0.02117 0.0847,-0.04233 0.10584,-0.04233 0.0635,0 0.10583,0.02117 0.14816,0.04233 z m -0.4445,0.1905 c 0.0847,0.04233 0.14817,0.08467 0.1905,0.08467 0.0847,0 0.14817,-0.08467 0.29634,-0.254 0.14816,0.105833 0.29633,0.211667 0.16933,0.4445 -0.10583,0.04233 -0.23283,0.0635 -0.33867,0.0635 -0.14816,0 -0.29633,-0.04233 -0.46566,-0.08467 0.0423,-0.08467 0.10583,-0.169334 0.14816,-0.254001 z m 0.71967,1.67217 c 0.0635,0 0.14817,0.127 0.21167,0.211667 -0.0847,0.148166 -0.1905,0.296333 -0.29634,0.465667 -0.0212,0 -0.0635,0 -0.0847,0 -0.0212,0 -0.0635,0 -0.0847,0 -0.0635,0 -0.10583,-0.02117 -0.127,-0.04233 -0.10583,-0.169334 -0.1905,-0.381001 -0.29633,-0.571501 0.0635,-0.04233 0.10583,-0.04233 0.14816,-0.04233 0.10584,0 0.14817,0.127 0.21167,0.127 0.10583,-0.02117 0.21167,-0.148166 0.3175,-0.148166 z m 0.0212,1.037168 c -0.0423,-0.127 -0.0635,-0.232834 -0.10584,-0.338667 0.0423,0 0.0847,0 0.127,0 0,0.105833 0,0.211667 -0.0212,0.338667 z m 0.1905,-0.486834 c 0,0.04233 0,0.08467 0,0.127 -0.0423,0 -0.0847,0 -0.10584,0 0.0212,-0.04233 0.0635,-0.08467 0.10584,-0.127 z m 0.0212,-0.0635 c 0,-0.08467 0,-0.169334 0,-0.254001 0.0635,0.08467 0.0847,0.169334 0,0.254001 z m -0.99483,1.672169 h -0.0212 c 0.0212,-0.04233 0.0423,-0.0635 0.0423,-0.105834 0,0.04233 -0.0212,0.0635 -0.0212,0.105834 z m 0,-0.613834 c 0.10583,-0.04233 0.16933,-0.0635 0.21167,-0.0635 0.0423,0 0.0635,0.04233 0.10583,0.148166 -0.10583,-0.02117 -0.21167,-0.0635 -0.3175,-0.08467 z m 0.29633,0.973668 c 0,0 0.0212,0.02117 0.0212,0.02117 -0.0212,0 -0.0635,-0.02117 -0.0847,-0.02117 0.0212,0 0.0423,0 0.0635,0 z m -0.127,0.804335 c -0.0212,-0.02117 -0.0212,-0.04233 -0.0423,-0.0635 0.0212,0.02117 0.0423,0.02117 0.0423,0.0635 z m 0.0212,0.677334 c -0.0423,0 -0.0847,0 -0.127,0 0,-0.0635 0,-0.105834 0.0212,-0.148167 0.0212,-0.02117 0.0635,-0.04233 0.10583,-0.0635 0.0212,0.02117 0.0423,0.04233 0.0423,0.0635 -0.0212,0.04233 -0.0212,0.08467 -0.0423,0.148167 z m 0.4445,-2.201337 c -0.0212,0.02117 -0.0423,0.0635 -0.0635,0.08467 -0.0635,-0.0635 -0.127,-0.127 -0.16933,-0.1905 0.0635,0.02117 0.14816,0.0635 0.23283,0.105833 z m -0.254,-2.772838 c 0.0212,0 0.0635,0 0.0635,0 0.0212,0.02117 0.0212,0.02117 0.0212,0.04233 -0.0212,-0.02117 -0.0423,-0.02117 -0.0847,-0.04233 z m -0.42333,2.497671 c -0.0423,-0.04233 -0.0635,-0.0635 -0.10584,-0.08467 -0.0635,-0.0635 -0.127,-0.127 -0.21166,-0.1905 0.254,0 0.254,0 0.3175,0.275167 z m 0.0635,2.497671 c 0,0.04233 0,0.08467 0,0.127 -0.0423,0 -0.0847,-0.02117 -0.127,-0.02117 0.0423,-0.04233 0.0847,-0.0635 0.127,-0.105833 z m 0.1905,0.127 c 0,-0.04233 0,-0.08467 0,-0.127 0.381,0.08467 0.40216,0.08467 0.4445,0.4445 -0.14817,-0.105833 -0.29634,-0.211667 -0.4445,-0.3175 z m 0.91016,-6.625177 c 0,0.04233 0,0.0635 0,0.08467 0,-0.02117 0,-0.04233 0,-0.04233 0,-0.02117 0,-0.02117 0,-0.04233 z m -0.4445,-1.079502 c -0.0212,0.232834 0.14817,0.3175 0.3175,0.444501 l -0.0423,0.02117 0.0423,-0.02117 c 0.0635,0.148166 0.0212,0.254 -0.127,0.275167 -0.0423,0 -0.0847,0 -0.127,0 -0.0847,0 -0.16933,0 -0.254,0 -0.0847,-0.08467 -0.1905,-0.190501 -0.27516,-0.275167 0.0423,-0.254001 0.1905,-0.423334 0.46566,-0.444501 z m -0.52916,-1.058335 c 0.0212,0.02117 0.0212,0.02117 0.0423,0.02117 -0.0212,0.02117 -0.0423,0.02117 -0.0847,0.04233 0.0212,-0.02117 0.0212,-0.04233 0.0423,-0.0635 z m 0.0423,1.502836 c 0,0.08467 0,0.1905 0,0.275167 -0.0423,0.02117 -0.0635,0.02117 -0.10583,0.02117 -0.10584,0 -0.127,-0.105833 -0.16934,-0.232833 0.10584,-0.02117 0.1905,-0.04233 0.27517,-0.0635 z m -0.27517,0.931334 c -0.127,0.105834 -0.1905,0.148167 -0.1905,0.148167 -0.0423,-0.04233 -0.0847,-0.08467 -0.127,-0.148167 0.0423,-0.02117 0.0635,-0.0635 0.10584,-0.0635 0.0635,0 0.127,0.04233 0.21166,0.0635 z m -0.3175,-1.460502 c 0,-0.02117 0.0212,-0.04233 0.0212,-0.0635 0,0.02117 0,0.02117 -0.0212,0.0635 z m 0.0847,6.117176 c -0.0423,-0.02117 -0.0635,-0.0635 -0.10583,-0.08467 0.0212,-0.02117 0.0423,-0.0635 0.0635,-0.08467 0.0423,0.02117 0.0847,0.04233 0.10583,0.0635 -0.0212,0.04233 -0.0423,0.105833 -0.0635,0.105833 z m 0.55033,3.577173 c -0.0212,-0.02117 -0.0212,-0.04233 -0.0212,-0.0635 0.0212,0 0.0423,-0.02117 0.0423,0 0.0212,0 0.0212,0.02117 0.0212,0.04233 0,0 -0.0423,0.02117 -0.0423,0.02117 z m 0.4445,-1.439336 c 0,-0.04233 0,-0.0635 0,-0.105833 0.14817,-0.02117 0.29634,-0.04233 0.46567,-0.08467 0,0.04233 0,0.08467 0,0.105833 -0.14817,0.02117 -0.29633,0.0635 -0.46567,0.08467 z m 0.635,-1.672169 c 0,0.0635 0.0212,0.127 0.0212,0.211667 -0.0847,-0.0635 -0.0847,-0.127 -0.0212,-0.211667 z m 0.0423,-0.465668 c -0.0212,-0.02117 -0.0847,-0.0635 -0.0847,-0.08467 -0.0212,-0.04233 0.0212,-0.08467 0.0423,-0.127001 0.0423,0.02117 0.10584,0.0635 0.10584,0.08467 0,0.04233 -0.0423,0.08467 -0.0635,0.127 z m 0.29633,-1.820336 c 0,-0.08467 0,-0.169333 -0.0212,-0.254 0.1905,0.08467 0.1905,0.08467 0.0212,0.254 z"
         style="font-size:21.1667px;line-height:1;font-family:Brotherland;-inkscape-font-specification:'Brotherland, Normal';letter-spacing:0px"
         id="path94234" />
      <path
         d="m 129.87604,79.142634 -0.0212,-0.02117 -0.0212,0.04233 z m 0,0 c 0,-0.02117 -0.0212,-0.02117 -0.0212,-0.02117 0,0 0.0212,0.02117 0.0212,0.02117 z m 8.40318,6.392343 c -1.41817,0 -2.37067,1.397002 -2.98451,2.518837 -0.21166,0.402168 -0.508,0.550335 -0.9525,0.550335 -0.16933,0 -0.33867,0 -0.508,0 -0.33867,0 -0.67733,0 -0.99483,0 -0.61384,0 -0.762,-0.127001 -0.78317,-0.719668 -0.0212,-0.169334 0,-0.317501 0,-0.486834 0,-1.354669 0,-2.730505 -0.0212,-4.10634 0,-0.508001 -0.0423,-1.058335 0,-1.566336 0.0847,-0.825501 0.0423,-1.629836 0.0212,-2.434171 -0.0423,-1.439335 0.0423,-2.857504 0.74083,-4.148673 0.0423,-0.08467 0.0212,-0.1905 0.0423,-0.296334 -0.10584,-0.04233 -0.16934,-0.08467 -0.254,-0.08467 -2.03201,-0.02117 -4.08518,-0.02117 -6.13835,-0.02117 -0.0423,0 -0.0847,0.04233 -0.1905,0.08467 0.0423,0.148167 0.0423,0.338667 0.10584,0.486834 0.59266,1.143002 0.6985,2.37067 0.6985,3.619506 0,1.460502 0,2.942171 0,4.42384 0,0.508001 0.0847,1.037168 0.0847,1.566336 -0.0212,0.762001 -0.0847,1.524002 -0.0847,2.286003 0,1.248836 -0.14817,2.455338 -0.74084,3.577173 -0.0635,0.105833 -0.0423,0.254 -0.0635,0.423334 0.61384,0.02117 1.16417,0.04233 1.73567,0.04233 0.46567,-0.02117 0.9525,-0.105833 1.41817,-0.105833 1.397,0.02117 2.77284,0.02117 4.16984,0.08467 0.5715,0.04233 1.16417,0.04233 1.73567,0.04233 0.86783,0 1.73567,-0.02117 2.6035,-0.02117 0.127,0 0.254,-0.04233 0.381,-0.0635 0.0847,-0.402167 0.0423,-0.762001 0,-1.121835 -0.0635,-0.338667 -0.0847,-0.677334 -0.10583,-1.016002 -0.0423,-1.037168 0.0423,-2.05317 0.42334,-3.026838 0.10583,-0.275167 -0.0635,-0.465667 -0.33867,-0.486834 z m -7.66235,-4.826008 c -0.10583,0 -0.1905,-0.02117 -0.27516,-0.02117 0.0423,-0.02117 0.10583,-0.04233 0.14816,-0.04233 0.0423,0 0.0847,0.02117 0.127,0.0635 z m -1.88383,0.571501 c 0,0 0,0.02117 -0.0212,0.04233 0,-0.02117 0,-0.04233 0.0212,-0.04233 z m 0.762,-0.846668 c 0.16933,0.127001 0.3175,0.232834 0.1905,0.444501 -0.1905,0 -0.40217,0.02117 -0.71967,0.04233 0.23283,-0.211667 0.381,-0.338667 0.52917,-0.486834 z m 0.0212,-0.952501 c 0.0212,0.127 0.14817,0.275167 0,0.444501 -0.14816,-0.169334 -0.0423,-0.317501 0,-0.444501 z m 0.50801,3.196172 c -0.0212,0.169333 -0.0423,0.3175 -0.21167,0.3175 -0.0423,0 -0.0635,-0.02117 -0.10584,-0.02117 0.10584,-0.105833 0.21167,-0.1905 0.31751,-0.296333 z m -0.61384,-0.211667 c 0.29633,0.0635 0.21167,0.3175 0.254,0.508 -0.381,-0.127 -0.381,-0.127 -0.254,-0.508 z m -0.0635,-1.206502 -0.0423,0.04233 -0.0212,-0.04233 z m 0.0423,1.185335 c -0.27516,-0.02117 -0.29633,-0.04233 -0.29633,-0.275167 0.0423,0 0.0635,-0.02117 0.10583,-0.02117 0.14817,0 0.16934,0.127 0.1905,0.296334 z m -0.127,1.333502 c 0.0212,-0.02117 0.0635,-0.02117 0.0847,-0.02117 0.0635,0 0.127,0.08467 0.1905,0.148167 0,0.0635 0,0.148167 -0.0212,0.254001 -0.127,-0.0635 -0.23283,-0.105834 -0.35983,-0.169334 0.0423,-0.0635 0.0423,-0.169334 0.10583,-0.211667 z m 0.23284,1.206502 c -0.0212,0 -0.0635,0.02117 -0.0635,0.02117 -0.0212,-0.04233 -0.0423,-0.0635 -0.0423,-0.105834 0.0212,0 0.0212,0 0.0423,-0.02117 0.0212,0.04233 0.0423,0.0635 0.0635,0.105834 z m -0.10584,1.905003 c -0.10583,-0.04233 -0.21166,-0.08467 -0.3175,-0.127 0.10584,0 0.21167,-0.02117 0.3175,-0.02117 0,0.04233 0,0.08467 0,0.148167 z m 0.0212,-0.1905 c -0.0635,-0.08467 -0.10583,-0.169334 -0.16933,-0.275167 0.0635,0 0.14816,0 0.1905,0.02117 0.0635,0.02117 0.10583,0.105834 0.14816,0.148167 -0.0635,0.04233 -0.127,0.08467 -0.16933,0.105834 z m 0.14817,-0.931335 0.0212,0.02117 c 0.0635,-0.02117 0.127,-0.04233 0.1905,-0.04233 0.0212,0 0.0423,0 0.0635,0.02117 0.12701,0.08467 0.0635,0.211667 0.0212,0.3175 -0.10583,-0.105833 -0.21167,-0.211667 -0.29633,-0.3175 z m 0.29633,-0.846668 c 0.0212,-0.04233 0.0212,-0.08467 0.0423,-0.127 0,-0.02117 0.0212,-0.04233 0.0212,-0.0635 0.0212,0.04233 0.0423,0.08467 0.0423,0.105834 -0.0212,0.02117 -0.0635,0.04233 -0.10584,0.08467 z m -0.0212,-0.931335 c -0.0847,-0.02117 -0.16933,-0.0635 -0.254,-0.08467 0.0635,-0.211667 0.14817,-0.402167 0.38101,-0.486834 0.0635,0.169334 -0.0212,0.381001 0.1905,0.465667 -0.10584,0.04233 -0.21167,0.0635 -0.31751,0.105834 z m 0.21167,-1.375836 c 0,-0.04233 0,-0.105833 0,-0.148166 0.0635,0 0.10584,0 0.14817,0.02117 -0.0423,0.04233 -0.0847,0.08467 -0.14817,0.127 z m 0.14817,-0.804334 c -0.0635,0 -0.10583,0 -0.16933,0 -0.10584,0 -0.19051,0 -0.29634,0 0.0635,-0.127 0.10583,-0.275167 0.1905,-0.381001 0.0635,-0.0635 0.127,-0.08467 0.1905,-0.08467 0.0635,0 0.14817,0.02117 0.21167,0.105834 0.14817,0.169334 -0.0212,0.254 -0.127,0.359834 z m 0.0847,0.656168 h -0.0423 c 0,-0.02117 0.0212,-0.0635 0.0212,-0.08467 0.0212,0.02117 0.0212,0.0635 0.0212,0.08467 z m -0.0847,-2.370671 c 0.0423,0 0.10583,0 0.14817,0 0,0.0635 0,0.105834 -0.0212,0.169334 -0.0423,-0.02117 -0.0847,-0.02117 -0.127,-0.02117 0,-0.04233 0,-0.105833 0,-0.148167 z m 0,0.677335 c 0.0423,-0.02117 0.0635,-0.04233 0.10583,-0.0635 0,0.04233 0,0.08467 -0.0212,0.105834 0,0.02117 -0.0635,0.02117 -0.0847,0.02117 0,-0.02117 0,-0.04233 0,-0.0635 z m 0.14817,-1.60867 c -0.0212,0.02117 -0.0212,0.0635 -0.0423,0.08467 -0.0423,0.02117 -0.0635,0.02117 -0.10583,0.02117 0.0212,-0.02117 0.0423,-0.04233 0.0847,-0.08467 0,0 0.0423,-0.02117 0.0635,-0.02117 z m -0.1905,-0.402167 c 0,0 0.0212,0.02117 0.0423,0.02117 0,0.02117 -0.0212,0.04233 -0.0212,0.0635 -0.0212,-0.02117 -0.0423,-0.02117 -0.0635,-0.02117 0.0212,-0.02117 0.0212,-0.04233 0.0423,-0.0635 z m -0.46567,-0.211667 c 0,0.02117 0,0.04233 -0.0212,0.0635 -0.0212,0 -0.0423,0.02117 -0.0635,0.02117 0.0212,-0.02117 0.0635,-0.0635 0.0847,-0.08467 z m -0.127,0.148167 c 0.10583,0.127 0.21166,0.275167 0.3175,0.423334 0.0847,0.0635 0.1905,0.127 0.27517,0.169333 0,0.254001 0.0212,0.508001 0.0212,0.762002 -0.0423,-0.0635 -0.10583,-0.105834 -0.10583,-0.148167 -0.0212,-0.359834 -0.27517,-0.444501 -0.55034,-0.508001 -0.0212,-0.02117 -0.0423,-0.0635 -0.0635,-0.105834 -0.16933,-0.3175 -0.1905,-0.3175 0.10584,-0.592667 z m -0.42334,0.931335 c -0.127,-0.127001 -0.23283,-0.232834 -0.33866,-0.359834 0.0847,0 0.127,-0.02117 0.1905,-0.02117 0.127,0 0.127,0.08467 0.14816,0.381001 z m -0.5715,5.080008 c -0.0212,0 -0.0635,-0.0635 -0.0635,-0.105834 0.0635,-0.0635 0.0635,-0.0635 0.14817,-0.0635 0.0423,0 0.0847,0 0.10583,0.02117 -0.0212,0.04233 -0.0212,0.08467 -0.0635,0.105833 -0.0212,0.04233 -0.0847,0.0635 -0.127,0.04233 z m 0.16934,4.085173 c 0,-0.02117 -0.0212,-0.04233 -0.0423,-0.0635 0.0212,-0.02117 0.0423,-0.02117 0.0635,-0.02117 0,0 0.0212,0.04233 0.0212,0.04233 0,0.02117 -0.0212,0.04233 -0.0423,0.04233 z m 0.10583,-5.080008 c -0.10583,-0.04233 -0.21167,-0.08467 -0.3175,-0.127 0.10583,0 0.21167,0.02117 0.33867,0.02117 -0.0212,0.02117 -0.0212,0.0635 -0.0212,0.105834 z m 0.10583,2.540004 c 0.0423,-0.0635 0.10584,-0.105834 0.14817,-0.148167 0.0212,0 0.0847,0.0635 0.10583,0.08467 0.0212,0.0635 0.0212,0.148167 0.0212,0.211667 -0.0635,0 -0.14817,0 -0.21167,-0.04233 -0.0212,0 -0.0635,-0.08467 -0.0635,-0.105833 z m 0.1905,2.074337 0.0212,-0.04233 0.0212,0.04233 z m 0.48684,-1.312336 c -0.0635,-0.04233 -0.127,-0.0635 -0.16934,-0.105833 0.0635,0 0.127,0 0.21167,0 -0.0212,0.04233 -0.0212,0.0635 -0.0423,0.105833 z m 0.1905,1.121835 c -0.0212,-0.02117 -0.0212,-0.04233 -0.0423,-0.0635 0.0212,0 0.0635,-0.02117 0.0635,-0.02117 0.0212,0.04233 0.0212,0.0635 0.0423,0.105834 -0.0212,-0.02117 -0.0423,-0.02117 -0.0635,-0.02117 z m 0.3175,-1.312335 c -0.0212,-0.02117 -0.10583,-0.02117 -0.10583,-0.02117 0,-0.04233 0,-0.08467 0.0212,-0.148167 0.0212,0.04233 0.0635,0.0635 0.10584,0.08467 0,0.02117 0,0.0635 -0.0212,0.08467 z m 0.35983,-2.264837 c -0.0423,0.105833 -0.0847,0.211667 -0.14816,0.3175 -0.16934,-0.1905 -0.16934,-0.211667 0.14816,-0.3175 z m -0.1905,3.725339 c 0,-0.02117 0.0212,-0.04233 0.0212,-0.0635 0.0212,0.04233 0.0423,0.0635 0.0635,0.105834 -0.0423,-0.02117 -0.0635,-0.02117 -0.0847,-0.04233 z m 0.0423,-0.931335 0.0212,-0.04233 0.0423,0.04233 z"
         style="font-size:21.1667px;line-height:1;font-family:Brotherland;-inkscape-font-specification:'Brotherland, Normal';letter-spacing:0px"
         id="path94236" />
      <path
         d="m 143.65554,79.142634 -0.0212,-0.02117 -0.0212,0.04233 z m 0,0 c 0,-0.02117 -0.0212,-0.02117 -0.0212,-0.02117 0,0 0.0212,0.02117 0.0212,0.02117 z m 8.40318,6.392343 c -1.41817,0 -2.37067,1.397002 -2.9845,2.518837 -0.21167,0.402168 -0.508,0.550335 -0.95251,0.550335 -0.16933,0 -0.33866,0 -0.508,0 -0.33866,0 -0.67733,0 -0.99483,0 -0.61384,0 -0.762,-0.127001 -0.78317,-0.719668 -0.0212,-0.169334 0,-0.317501 0,-0.486834 0,-1.354669 0,-2.730505 -0.0212,-4.10634 0,-0.508001 -0.0423,-1.058335 0,-1.566336 0.0847,-0.825501 0.0423,-1.629836 0.0212,-2.434171 -0.0423,-1.439335 0.0423,-2.857504 0.74084,-4.148673 0.0423,-0.08467 0.0212,-0.1905 0.0423,-0.296334 -0.10583,-0.04233 -0.16933,-0.08467 -0.254,-0.08467 -2.032,-0.02117 -4.08517,-0.02117 -6.13834,-0.02117 -0.0423,0 -0.0847,0.04233 -0.1905,0.08467 0.0423,0.148167 0.0423,0.338667 0.10583,0.486834 0.59267,1.143002 0.6985,2.37067 0.6985,3.619506 0,1.460502 0,2.942171 0,4.42384 0,0.508001 0.0847,1.037168 0.0847,1.566336 -0.0212,0.762001 -0.0847,1.524002 -0.0847,2.286003 0,1.248836 -0.14817,2.455338 -0.74083,3.577173 -0.0635,0.105833 -0.0423,0.254 -0.0635,0.423334 0.61383,0.02117 1.16416,0.04233 1.73566,0.04233 0.46567,-0.02117 0.95251,-0.105833 1.41817,-0.105833 1.39701,0.02117 2.77284,0.02117 4.16984,0.08467 0.5715,0.04233 1.16417,0.04233 1.73567,0.04233 0.86784,0 1.73567,-0.02117 2.60351,-0.02117 0.127,0 0.254,-0.04233 0.381,-0.0635 0.0847,-0.402167 0.0423,-0.762001 0,-1.121835 -0.0635,-0.338667 -0.0847,-0.677334 -0.10584,-1.016002 -0.0423,-1.037168 0.0423,-2.05317 0.42334,-3.026838 0.10583,-0.275167 -0.0635,-0.465667 -0.33867,-0.486834 z m -7.66234,-4.826008 c -0.10584,0 -0.1905,-0.02117 -0.27517,-0.02117 0.0423,-0.02117 0.10583,-0.04233 0.14817,-0.04233 0.0423,0 0.0847,0.02117 0.127,0.0635 z m -1.88384,0.571501 c 0,0 0,0.02117 -0.0212,0.04233 0,-0.02117 0,-0.04233 0.0212,-0.04233 z m 0.762,-0.846668 c 0.16933,0.127001 0.3175,0.232834 0.1905,0.444501 -0.1905,0 -0.40217,0.02117 -0.71967,0.04233 0.23284,-0.211667 0.381,-0.338667 0.52917,-0.486834 z m 0.0212,-0.952501 c 0.0212,0.127 0.14816,0.275167 0,0.444501 -0.14817,-0.169334 -0.0423,-0.317501 0,-0.444501 z m 0.508,3.196172 c -0.0212,0.169333 -0.0423,0.3175 -0.21167,0.3175 -0.0423,0 -0.0635,-0.02117 -0.10583,-0.02117 0.10583,-0.105833 0.21166,-0.1905 0.3175,-0.296333 z m -0.61384,-0.211667 c 0.29634,0.0635 0.21167,0.3175 0.254,0.508 -0.381,-0.127 -0.381,-0.127 -0.254,-0.508 z m -0.0635,-1.206502 -0.0423,0.04233 -0.0212,-0.04233 z m 0.0423,1.185335 c -0.27517,-0.02117 -0.29634,-0.04233 -0.29634,-0.275167 0.0423,0 0.0635,-0.02117 0.10584,-0.02117 0.14816,0 0.16933,0.127 0.1905,0.296334 z m -0.127,1.333502 c 0.0212,-0.02117 0.0635,-0.02117 0.0847,-0.02117 0.0635,0 0.127,0.08467 0.1905,0.148167 0,0.0635 0,0.148167 -0.0212,0.254001 -0.127,-0.0635 -0.23284,-0.105834 -0.35984,-0.169334 0.0423,-0.0635 0.0423,-0.169334 0.10584,-0.211667 z m 0.23283,1.206502 c -0.0212,0 -0.0635,0.02117 -0.0635,0.02117 -0.0212,-0.04233 -0.0423,-0.0635 -0.0423,-0.105834 0.0212,0 0.0212,0 0.0423,-0.02117 0.0212,0.04233 0.0423,0.0635 0.0635,0.105834 z m -0.10583,1.905003 c -0.10584,-0.04233 -0.21167,-0.08467 -0.3175,-0.127 0.10583,0 0.21166,-0.02117 0.3175,-0.02117 0,0.04233 0,0.08467 0,0.148167 z m 0.0212,-0.1905 c -0.0635,-0.08467 -0.10583,-0.169334 -0.16933,-0.275167 0.0635,0 0.14817,0 0.1905,0.02117 0.0635,0.02117 0.10583,0.105834 0.14817,0.148167 -0.0635,0.04233 -0.127,0.08467 -0.16934,0.105834 z m 0.14817,-0.931335 0.0212,0.02117 c 0.0635,-0.02117 0.127,-0.04233 0.1905,-0.04233 0.0212,0 0.0423,0 0.0635,0.02117 0.127,0.08467 0.0635,0.211667 0.0212,0.3175 -0.10583,-0.105833 -0.21166,-0.211667 -0.29633,-0.3175 z m 0.29633,-0.846668 c 0.0212,-0.04233 0.0212,-0.08467 0.0423,-0.127 0,-0.02117 0.0212,-0.04233 0.0212,-0.0635 0.0212,0.04233 0.0423,0.08467 0.0423,0.105834 -0.0212,0.02117 -0.0635,0.04233 -0.10584,0.08467 z m -0.0212,-0.931335 c -0.0847,-0.02117 -0.16934,-0.0635 -0.254,-0.08467 0.0635,-0.211667 0.14816,-0.402167 0.381,-0.486834 0.0635,0.169334 -0.0212,0.381001 0.1905,0.465667 -0.10584,0.04233 -0.21167,0.0635 -0.3175,0.105834 z m 0.21166,-1.375836 c 0,-0.04233 0,-0.105833 0,-0.148166 0.0635,0 0.10584,0 0.14817,0.02117 -0.0423,0.04233 -0.0847,0.08467 -0.14817,0.127 z m 0.14817,-0.804334 c -0.0635,0 -0.10583,0 -0.16933,0 -0.10584,0 -0.1905,0 -0.29634,0 0.0635,-0.127 0.10584,-0.275167 0.1905,-0.381001 0.0635,-0.0635 0.127,-0.08467 0.1905,-0.08467 0.0635,0 0.14817,0.02117 0.21167,0.105834 0.14817,0.169334 -0.0212,0.254 -0.127,0.359834 z m 0.0847,0.656168 h -0.0423 c 0,-0.02117 0.0212,-0.0635 0.0212,-0.08467 0.0212,0.02117 0.0212,0.0635 0.0212,0.08467 z m -0.0847,-2.370671 c 0.0423,0 0.10584,0 0.14817,0 0,0.0635 0,0.105834 -0.0212,0.169334 -0.0423,-0.02117 -0.0847,-0.02117 -0.127,-0.02117 0,-0.04233 0,-0.105833 0,-0.148167 z m 0,0.677335 c 0.0423,-0.02117 0.0635,-0.04233 0.10584,-0.0635 0,0.04233 0,0.08467 -0.0212,0.105834 0,0.02117 -0.0635,0.02117 -0.0847,0.02117 0,-0.02117 0,-0.04233 0,-0.0635 z m 0.14817,-1.60867 c -0.0212,0.02117 -0.0212,0.0635 -0.0423,0.08467 -0.0423,0.02117 -0.0635,0.02117 -0.10584,0.02117 0.0212,-0.02117 0.0423,-0.04233 0.0847,-0.08467 0,0 0.0423,-0.02117 0.0635,-0.02117 z m -0.1905,-0.402167 c 0,0 0.0212,0.02117 0.0423,0.02117 0,0.02117 -0.0212,0.04233 -0.0212,0.0635 -0.0212,-0.02117 -0.0423,-0.02117 -0.0635,-0.02117 0.0212,-0.02117 0.0212,-0.04233 0.0423,-0.0635 z m -0.46567,-0.211667 c 0,0.02117 0,0.04233 -0.0212,0.0635 -0.0212,0 -0.0423,0.02117 -0.0635,0.02117 0.0212,-0.02117 0.0635,-0.0635 0.0847,-0.08467 z m -0.127,0.148167 c 0.10583,0.127 0.21167,0.275167 0.3175,0.423334 0.0847,0.0635 0.1905,0.127 0.27517,0.169333 0,0.254001 0.0212,0.508001 0.0212,0.762002 -0.0423,-0.0635 -0.10583,-0.105834 -0.10583,-0.148167 -0.0212,-0.359834 -0.27517,-0.444501 -0.55033,-0.508001 -0.0212,-0.02117 -0.0423,-0.0635 -0.0635,-0.105834 -0.16934,-0.3175 -0.1905,-0.3175 0.10583,-0.592667 z m -0.42333,0.931335 c -0.127,-0.127001 -0.23284,-0.232834 -0.33867,-0.359834 0.0847,0 0.127,-0.02117 0.1905,-0.02117 0.127,0 0.127,0.08467 0.14817,0.381001 z m -0.5715,5.080008 c -0.0212,0 -0.0635,-0.0635 -0.0635,-0.105834 0.0635,-0.0635 0.0635,-0.0635 0.14816,-0.0635 0.0423,0 0.0847,0 0.10584,0.02117 -0.0212,0.04233 -0.0212,0.08467 -0.0635,0.105833 -0.0212,0.04233 -0.0847,0.0635 -0.127,0.04233 z m 0.16933,4.085173 c 0,-0.02117 -0.0212,-0.04233 -0.0423,-0.0635 0.0212,-0.02117 0.0423,-0.02117 0.0635,-0.02117 0,0 0.0212,0.04233 0.0212,0.04233 0,0.02117 -0.0212,0.04233 -0.0423,0.04233 z m 0.10583,-5.080008 c -0.10583,-0.04233 -0.21166,-0.08467 -0.3175,-0.127 0.10584,0 0.21167,0.02117 0.33867,0.02117 -0.0212,0.02117 -0.0212,0.0635 -0.0212,0.105834 z m 0.10584,2.540004 c 0.0423,-0.0635 0.10583,-0.105834 0.14816,-0.148167 0.0212,0 0.0847,0.0635 0.10584,0.08467 0.0212,0.0635 0.0212,0.148167 0.0212,0.211667 -0.0635,0 -0.14816,0 -0.21166,-0.04233 -0.0212,0 -0.0635,-0.08467 -0.0635,-0.105833 z m 0.1905,2.074337 0.0212,-0.04233 0.0212,0.04233 z m 0.48683,-1.312336 c -0.0635,-0.04233 -0.127,-0.0635 -0.16933,-0.105833 0.0635,0 0.127,0 0.21166,0 -0.0212,0.04233 -0.0212,0.0635 -0.0423,0.105833 z m 0.1905,1.121835 c -0.0212,-0.02117 -0.0212,-0.04233 -0.0423,-0.0635 0.0212,0 0.0635,-0.02117 0.0635,-0.02117 0.0212,0.04233 0.0212,0.0635 0.0423,0.105834 -0.0212,-0.02117 -0.0423,-0.02117 -0.0635,-0.02117 z m 0.3175,-1.312335 c -0.0212,-0.02117 -0.10583,-0.02117 -0.10583,-0.02117 0,-0.04233 0,-0.08467 0.0212,-0.148167 0.0212,0.04233 0.0635,0.0635 0.10584,0.08467 0,0.02117 0,0.0635 -0.0212,0.08467 z m 0.35984,-2.264837 c -0.0423,0.105833 -0.0847,0.211667 -0.14817,0.3175 -0.16934,-0.1905 -0.16934,-0.211667 0.14817,-0.3175 z m -0.1905,3.725339 c 0,-0.02117 0.0212,-0.04233 0.0212,-0.0635 0.0212,0.04233 0.0423,0.0635 0.0635,0.105834 -0.0423,-0.02117 -0.0635,-0.02117 -0.0847,-0.04233 z m 0.0423,-0.931335 0.0212,-0.04233 0.0423,0.04233 z"
         style="font-size:21.1667px;line-height:1;font-family:Brotherland;-inkscape-font-specification:'Brotherland, Normal';letter-spacing:0px"
         id="path94238" />
      <path
         d="m 166.51556,85.429144 c -0.381,-1.079502 -1.03717,-1.947337 -2.01084,-2.561171 -0.762,-0.486834 -1.54517,-0.910168 -2.30717,-1.397002 -0.74083,-0.444501 -1.48167,-0.910168 -2.18017,-1.397003 -0.29633,-0.211667 -0.5715,-0.486834 -0.78317,-0.783168 -0.4445,-0.656167 -0.29633,-1.524002 0.29634,-1.989669 0.48683,-0.381001 1.016,-0.592668 1.5875,-0.592668 0.97367,0 1.92617,0.571501 2.413,1.397002 0.29634,0.465668 0.59267,0.931335 0.95251,1.354669 0.42333,0.529168 0.99483,0.846668 1.67216,0.952502 0.0423,0 0.0847,0 0.127,0 0.35984,0 0.50801,-0.211667 0.40217,-0.592668 -0.4445,-1.545169 -0.5715,-3.111505 -0.27517,-4.677841 0.0212,-0.127 -0.0212,-0.232833 -0.0423,-0.338667 -0.0847,-0.02117 -0.10583,-0.04233 -0.127,-0.02117 -0.0847,0.02117 -0.14817,0.04233 -0.21167,0.08467 -0.3175,0.275167 -0.635,0.381001 -0.99483,0.381001 -0.254,0 -0.52917,-0.0635 -0.80434,-0.148167 -0.14816,-0.04233 -0.27516,-0.127 -0.4445,-0.169334 -0.8255,-0.232833 -1.60867,-0.613834 -2.49767,-0.677334 -0.52916,-0.02117 -1.03716,-0.0635 -1.54517,-0.0635 -0.23283,0 -0.4445,0 -0.65616,0.02117 -1.46051,0.0635 -2.70934,0.635001 -3.78884,1.587503 -1.82034,1.587502 -2.09551,4.508507 -0.16934,6.28651 1.07951,1.016002 2.18017,1.756836 3.47134,2.43417 0.5715,0.338668 1.143,0.677335 1.69334,1.058336 0.35983,0.254 0.6985,0.529167 0.97367,0.889001 0.48683,0.592668 0.42333,1.524002 -0.127,2.010836 -0.48684,0.465668 -0.9525,0.677335 -1.62984,0.677335 -0.99483,-0.04233 -1.8415,-0.423334 -2.413,-1.291169 -0.254,-0.359834 -0.46567,-0.740834 -0.71967,-1.121835 -0.33867,-0.550334 -1.3335,-1.312335 -2.032,-1.312335 -0.14817,0 -0.3175,0.04233 -0.48684,0.169333 -0.0423,0.613835 0.29634,1.164169 0.33867,1.778003 0.0212,0.613834 0.10583,1.248835 0.10583,1.883836 -0.0212,0.592668 -0.0847,1.185336 -0.14816,1.883837 0.1905,-0.08467 0.27516,-0.105834 0.33866,-0.148167 0.29634,-0.275167 0.65617,-0.359834 1.03717,-0.359834 0.10583,0 0.1905,0.02117 0.29633,0.02117 0.21167,0.02117 0.40217,0.08467 0.59267,0.169333 1.29117,0.486834 2.60351,0.825502 3.97934,0.825502 0.21167,0 0.4445,0 0.65617,-0.02117 0.0212,0 0.0423,0 0.0635,0 0.99483,0 1.50284,-0.0635 2.45534,-0.508001 0.93133,-0.402167 1.75683,-0.952502 2.3495,-1.79917 0.80434,-1.206501 1.05834,-2.49767 0.59267,-3.894672 z m -3.34434,-1.206502 c 0,0.0635 0,0.127 0.0212,0.1905 -0.0423,-0.0635 -0.0635,-0.105834 -0.10584,-0.148167 0.0212,-0.02117 0.0635,-0.02117 0.0847,-0.04233 z m -0.55033,-0.105834 c -0.0212,0 -0.0212,0 -0.0423,0 0,-0.02117 0,-0.04233 -0.0212,-0.04233 0.0212,0 0.0423,0.02117 0.0635,0.04233 z m -0.14817,0.635001 c -0.0847,-0.02117 -0.14817,-0.04233 -0.16933,-0.148167 0.0635,0.0635 0.10583,0.105834 0.16933,0.148167 z m -1.0795,-1.735669 c 0,0 0,0 0,0 0.0635,-0.02117 0.16933,-0.08467 0.21166,-0.0635 0.0847,0.08467 0.0635,0.211667 -0.0423,0.296333 -0.10583,0.0635 -0.21167,0.148167 -0.3175,0.211667 -0.0423,-0.08467 -0.0847,-0.1905 -0.14817,-0.275167 0.0423,-0.169333 0.0635,-0.254 0.10584,-0.254 0.0423,0 0.10583,0.04233 0.1905,0.08467 z m -0.42334,-0.867835 c -0.0635,-0.0635 -0.127,-0.105833 -0.1905,-0.148167 0.0847,-0.08467 0.1905,-0.169333 0.29634,-0.232834 0.0423,0.148167 0,0.275168 -0.10584,0.381001 z m 0,0.04233 c 0.0847,0.105834 0.14817,0.232834 0.21167,0.338668 -0.254,-0.02117 -0.27517,-0.04233 -0.21167,-0.338668 z m -1.56633,-0.910168 c 0.0212,0.04233 0.0423,0.105834 0.0635,0.148167 -0.0423,0.02117 -0.0847,0.0635 -0.10584,0.04233 -0.0423,0 -0.0635,-0.0635 -0.0635,-0.105834 0,-0.02117 0.0423,-0.04233 0.10584,-0.08467 z m 0.10583,0.825502 c 0.0212,-0.232834 0.254,-0.232834 0.381,-0.338668 0.0212,-0.127 0.0635,-0.169333 0.14817,-0.169333 0.0423,0 0.0847,0 0.14817,0.02117 0.0212,-0.02117 0.0423,-0.02117 0.0423,-0.02117 0.0212,0.02117 0.0423,0.0635 0.0635,0.08467 0.0212,0.04233 0.0212,0.08467 0.0423,0.105833 -0.0423,0 -0.0847,0 -0.10583,0 -0.0847,0.02117 -0.14817,0.02117 -0.23284,0.04233 0.0212,0.08467 0,0.211667 0.0423,0.254 0.14817,0.08467 0.127,0.211667 0.0635,0.359834 -0.23284,0.02117 -0.48684,0.02117 -0.71967,0.04233 -0.0423,-0.148167 -0.21167,-0.338667 0.127,-0.381 z m -0.5715,-0.994835 c -0.0212,0 -0.0423,0 -0.0423,0 -0.0635,0 -0.0847,-0.04233 -0.10584,-0.105834 0.0423,0.04233 0.10584,0.08467 0.14817,0.105834 z m -0.65617,0.04233 c 0.0212,0 0.0212,0.02117 0.0423,0.04233 -0.0212,0.02117 -0.0212,0.04233 -0.0423,0.04233 -0.0212,-0.02117 -0.0212,-0.04233 -0.0423,-0.08467 0.0212,0 0.0423,-0.02117 0.0423,0 z m -0.1905,-1.037168 c 0,0 0,0 0,0 z m -2.032,0.423334 c -0.0212,0 -0.0423,0 -0.0635,0 0,-0.02117 0.0212,-0.02117 0.0212,-0.04233 0,0 0.0423,0 0.0423,0 0,0.02117 0,0.04233 0,0.04233 z m 0.65617,-1.502836 c -0.14817,-0.148167 -0.254,-0.254 -0.40217,-0.402167 0.27517,0.02117 0.40217,0.08467 0.40217,0.402167 z m 0.86783,2.561171 c -0.0423,0 -0.10583,-0.04233 -0.14817,-0.0635 -0.0423,0.02117 -0.10583,0.04233 -0.16933,0.0635 0.0212,-0.04233 0.0423,-0.08467 0.0635,-0.105834 0.0212,-0.04233 0.0635,-0.08467 0.0847,-0.127 0,-0.169333 0,-0.3175 0,-0.465667 0.254,0.127 0.23283,0.3175 0.10583,0.550334 0.0423,0 0.0847,0.02117 0.127,0.04233 0.0212,0 0.0212,0.02117 0.0423,0.04233 -0.0423,0.02117 -0.0847,0.0635 -0.10583,0.0635 z m -0.16933,-0.740835 c -0.0212,-0.02117 -0.0635,-0.02117 -0.0847,-0.04233 0.10583,-0.105834 0.21167,-0.211667 0.3175,-0.296334 0.0212,0.02117 0.0423,0.04233 0.0635,0.04233 -0.10583,0.105833 -0.21167,0.211667 -0.29633,0.296333 z m 0.4445,0.148167 c -0.0212,-0.02117 -0.0212,-0.04233 -0.0423,-0.08467 0.0423,0.04233 0.0635,0.0635 0.0847,0.105834 0,0 -0.0423,0 -0.0423,-0.02117 z m 0.14816,0.783168 c 0.0212,0.02117 0.0423,0.04233 0.0423,0.04233 0,-0.02117 -0.0212,-0.02117 -0.0423,-0.04233 z m 0.50801,0.846668 c -0.0212,0.04233 -0.0635,0.04233 -0.10584,0.0635 0,-0.04233 -0.0212,-0.08467 -0.0212,-0.105833 0,-0.02117 0.0635,-0.04233 0.0847,-0.0635 0.0212,0.04233 0.0423,0.08467 0.0423,0.105833 z m 0.0635,-0.762001 c -0.0212,-0.04233 -0.0212,-0.08467 -0.0212,-0.127 -0.0635,-0.04233 -0.14817,-0.08467 -0.21167,-0.148167 0.0847,0.02117 0.1905,0.02117 0.27517,0.02117 0.0423,0.04233 0.0847,0.0635 0.127,0.08467 0.0635,0.148167 0.127,0.296334 0.21167,0.444501 -0.0635,0 -0.10584,0 -0.14817,0 -0.16933,0 -0.1905,-0.04233 -0.23283,-0.275167 z m 0.23283,0.613834 c 0,0 0,0 0,0 z m 0.46567,0.719668 c -0.0212,-0.08467 -0.0212,-0.148167 -0.0212,-0.232834 0,-0.04233 0,-0.08467 0,-0.127 0.14817,0.1905 0.14817,0.1905 0.0212,0.359834 z m 0,-0.402167 c 0.0212,-0.105834 0.0635,-0.190501 0.10583,-0.296334 0.0847,0.148167 0.0847,0.169334 -0.10583,0.296334 z m 1.29117,0.931335 c 0,-0.02117 0.0212,-0.02117 0.0212,-0.02117 0,0 -0.0212,0 -0.0212,0.02117 z m 0.254,-0.465668 c -0.0635,-0.04233 -0.10584,-0.169333 -0.21167,-0.169333 -0.0212,0 -0.0635,0.02117 -0.10583,0.0635 0.0212,0.169333 0.0423,0.338667 0.0847,0.508 -0.46567,-0.275167 -0.59267,-0.677334 -0.46567,-1.227668 0.10584,-0.04233 0.21167,-0.08467 0.33867,-0.148167 0.0212,0.105833 0.0212,0.1905 0.0423,0.275167 0.0212,0 0.0423,-0.02117 0.0635,-0.02117 0.10583,0 0.14816,0.08467 0.16933,0.211667 0.21167,0.04233 0.21167,0.296334 0.35983,0.423334 -0.0635,0.0635 -0.10583,0.105834 -0.1905,0.105834 -0.0212,0 -0.0423,0 -0.0847,-0.02117 z m 0.889,1.672169 c -0.0423,0.02117 -0.0847,0.04233 -0.10584,0.04233 0,-0.02117 -0.0212,-0.0635 -0.0212,-0.105834 0.0423,0 0.0635,0 0.10583,0 0,0.02117 0.0212,0.0635 0.0212,0.0635 z m 0.16933,-0.740834 c -0.0212,0.127 -0.0423,0.211667 -0.16933,0.232834 -0.0635,0.02117 -0.14817,0.02117 -0.21167,0.04233 -0.0847,-0.02117 -0.16933,-0.02117 -0.254,-0.04233 0.10583,-0.232834 0.21167,-0.465668 0.4445,-0.635001 0.1905,0.0635 0.21167,0.211667 0.1905,0.402167 z m 0.3175,-0.931335 c 0.0635,-0.04233 0.10584,-0.105833 0.14817,-0.148167 0,0.105834 -0.0423,0.169334 -0.14817,0.148167 z m 0.14817,1.756836 c 0.0635,0.04233 0.127,0.105834 0.16933,0.148167 -0.0423,0.04233 -0.10583,0.105834 -0.16933,0.148167 -0.0847,-0.105833 -0.14817,-0.1905 0,-0.296334 z m 0.1905,0.127 c 0,-0.105833 -0.0212,-0.232833 -0.0212,-0.359833 0.0635,-0.08467 0.127,-0.190501 0.1905,-0.275168 0.0423,-0.04233 0.0635,-0.0635 0.10584,-0.0635 0.0635,0 0.10583,0.0635 0.14816,0.127001 0,0.1905 -0.0423,0.381 0.10584,0.508 -0.0847,0.08467 -0.16934,0.127001 -0.27517,0.127001 -0.0847,0 -0.16933,-0.02117 -0.254,-0.0635 z m 0.59267,0.846669 c 0,0 -0.0423,0.02117 -0.0635,0.02117 0,-0.04233 0,-0.08467 0.0212,-0.127 0,0 0.0212,-0.02117 0.0423,-0.02117 0,0.04233 0,0.08467 0,0.127001 z m 0.23283,0.825501 0.0212,-0.04233 0.0212,0.04233 z m 0.0847,-0.719668 c 0,-0.02117 -0.0212,-0.02117 -0.0212,-0.04233 0,0 0.0212,-0.02117 0.0423,-0.02117 0,0.02117 -0.0212,0.04233 -0.0212,0.0635 z m 0.1905,-0.804335 c -0.0212,-0.02117 -0.0423,-0.04233 -0.0635,-0.0635 0.0423,0 0.0635,0 0.10583,0 -0.0212,0.02117 -0.0212,0.04233 -0.0423,0.0635 z m 0.59266,2.010837 c -0.0212,-0.02117 -0.0423,-0.04233 -0.0635,-0.0635 0.0212,0 0.0423,0 0.0635,0 0,0.02117 0,0.04233 0,0.0635 z"
         style="font-size:21.1667px;line-height:1;font-family:Brotherland;-inkscape-font-specification:'Brotherland, Normal';letter-spacing:0px"
         id="path94240" />
    </g>
    <g
       aria-label="est  1909  ~  Brookton  Ny"
       id="text32528"
       style="font-size:7.76111px;line-height:1.25;letter-spacing:0px;stroke-width:0.264583">
      <path
         d="m 44.142205,98.820558 c 0.318206,-0.0078 0.636411,-0.0078 0.962378,-0.01552 0.380294,-0.01552 0.776111,-0.02328 1.164166,-0.02328 0.442384,0 0.877006,0.01552 1.342672,0.04657 0.06209,-0.02328 0.08537,-0.06985 0.06985,-0.108655 -0.06985,-0.302683 -0.100894,-0.659695 -0.09313,-1.001183 0,-0.03881 -0.02328,-0.06985 -0.06209,-0.07761 -0.02328,-0.0078 -0.03881,-0.0078 -0.06209,-0.0078 -0.403577,0.108656 -0.845961,0.131939 -1.296105,0.131939 -0.256117,0 -0.519994,-0.0078 -0.776111,-0.01552 l -0.124178,-0.0078 c -0.06209,0 -0.108655,-0.04657 -0.108655,-0.108656 0,-0.225072 0,-0.442383 0.0078,-0.667455 l 0.0078,-0.372533 c 0,-0.05433 0.04657,-0.100895 0.100894,-0.108656 h 0.450145 c 0.357011,0 0.6985,0.01552 1.032227,0.108656 0.03881,0 0.07761,-0.03105 0.08537,-0.06985 0.09313,-0.310445 0.131938,-0.62865 0.155222,-0.90805 0.0078,-0.02328 -0.0078,-0.03881 -0.02328,-0.06209 -0.01552,-0.01552 -0.04657,-0.02328 -0.05433,-0.02328 h -0.294922 c -0.155223,0 -0.310445,0 -0.457906,-0.0078 H 45.70995 c -0.147462,0 -0.294923,0 -0.442384,0.0078 -0.06209,0 -0.116416,-0.03881 -0.116416,-0.108656 l 0.02328,-0.877005 c 0,-0.05433 0.04657,-0.100895 0.108656,-0.108656 h 0.194027 c 0.162984,0 0.325967,-0.0078 0.481189,-0.0078 0.504472,0 0.993422,0.03104 1.497894,0.162983 0.03881,0 0.06985,0 0.09313,-0.03881 l 0.01552,-0.06209 c 0.01552,-0.318206 0.06985,-0.62865 0.170744,-0.946855 0.0078,-0.01552 0.0078,-0.04657 -0.0078,-0.06985 -0.01552,-0.03104 -0.06985,-0.04657 -0.108655,-0.04657 h -0.186267 c -0.644172,0.01552 -1.303867,0.02328 -1.963561,0.02328 -0.434622,0 -0.869244,0 -1.296105,-0.01552 -0.03105,0 -0.04657,0.0078 -0.06209,0.02328 -0.03104,0.02328 -0.03881,0.04657 -0.03881,0.06985 0.02328,0.535517 0.01552,1.071033 0.0078,1.591028 -0.01552,0.791633 -0.01552,1.583266 -0.01552,2.374899 -0.0078,0.403578 -0.0078,0.814917 -0.02328,1.218495 0,0.03104 0.0078,0.04657 0.02328,0.06209 0.0078,0.01552 0.02328,0.0388 0.07761,0.04657 z"
         style="font-family:SMITHOUSE;-inkscape-font-specification:SMITHOUSE;fill:#333333"
         id="path94243" />
      <path
         d="m 51.903302,96.228348 c -0.48895,-0.426862 -0.9779,-0.512234 -1.373716,-0.582084 -0.318206,-0.05433 -0.589845,-0.100894 -0.776111,-0.294922 -0.155223,-0.155222 -0.201789,-0.341489 -0.131939,-0.535516 0.08537,-0.232834 0.341489,-0.434623 0.597605,-0.465667 0.03881,0 0.08537,-0.0078 0.124178,-0.0078 0.4191,0 0.892528,0.225072 1.303866,0.62865 0.01552,0.02328 0.03881,0.03104 0.07761,0.03104 0.0078,0 0.0078,0 0.09313,-0.07761 0.0078,-0.372533 0.03881,-0.721783 0.07761,-1.071033 0.0078,-0.03881 -0.0078,-0.06985 -0.04657,-0.07761 -0.442383,-0.225072 -0.9779,-0.372533 -1.497894,-0.372533 -0.90805,0 -1.722966,0.496711 -1.792816,1.466849 -0.02328,0.442384 0.131939,0.877006 0.442383,1.18745 0.263878,0.263878 0.737305,0.434622 1.086555,0.48895 l 0.09313,0.0078 c 0.201788,0.03104 0.364772,0.05433 0.5588,0.108656 0.162983,0.05433 0.551038,0.170744 0.574322,0.496711 0.02328,0.256116 -0.263878,0.597605 -0.613128,0.714022 -0.124178,0.03104 -0.248356,0.04657 -0.372533,0.04657 -0.636411,0 -1.280583,-0.357011 -1.575506,-0.908049 -0.01552,-0.02328 -0.03104,-0.03881 -0.06985,-0.04657 -0.02328,0 -0.0388,0.0078 -0.05433,0.02328 l -0.04657,0.06985 c 0,0.426861 -0.03104,0.845961 -0.06985,1.280583 0,0.03104 0.01552,0.06209 0.03881,0.06985 0.465666,0.287161 1.063272,0.442384 1.645355,0.442384 0.931333,0 1.963561,-0.411339 2.079977,-1.459089 0.07761,-0.48895 -0.04657,-0.877005 -0.372533,-1.164166 z"
         style="font-family:SMITHOUSE;-inkscape-font-specification:SMITHOUSE;fill:#333333"
         id="path94245" />
      <path
         d="m 56.715176,93.496437 c 0,-0.05433 -0.03104,-0.08537 -0.08537,-0.08537 h -0.225072 c -1.18745,0 -2.343855,0.01552 -3.453694,0.03881 h -0.01552 c -0.04657,0 -0.06985,0.02328 -0.08537,0.06209 -0.03104,0.147461 -0.05433,0.294922 -0.07761,0.442383 -0.01552,0.155223 -0.0388,0.302684 -0.07761,0.450145 -0.01552,0.05433 -0.0078,0.100894 0.01552,0.124177 0.01552,0.01552 0.0388,0.02328 0.07761,0.01552 0.364772,-0.07761 0.737305,-0.09313 1.102077,-0.09313 h 0.240595 c 0.06209,0 0.108655,0.04657 0.108655,0.108656 0.0078,0.465667 0.0078,0.931333 0.0078,1.373716 v 0.519995 c 0,0.201789 0,0.4191 0.0078,0.62865 0.02328,0.551038 0.03881,1.117599 -0.06985,1.653116 -0.0078,0.03104 0,0.05433 0.01552,0.07761 0.01552,0.02328 0.0388,0.03881 0.07761,0.03881 h 1.039988 c 0.02328,0 0.03881,-0.0078 0.05433,-0.02328 0.03104,-0.02328 0.03881,-0.04657 0.03881,-0.06985 -0.08537,-1.490133 -0.07761,-3.065638 -0.06209,-4.214282 0,-0.06209 0.04657,-0.108656 0.100894,-0.108656 0.201789,-0.0078 0.395817,-0.01552 0.589845,-0.01552 0.170744,0 0.333727,0.0078 0.48895,0.01552 0.108655,0.02328 0.194027,0.04657 0.271638,0.07761 l 0.06985,-0.01552 c 0.03104,-0.02328 0.04657,-0.06209 0.03881,-0.09313 z"
         style="font-family:SMITHOUSE;-inkscape-font-specification:SMITHOUSE;fill:#333333"
         id="path94247" />
      <path
         d="m 63.933,98.642053 c -0.0388,-0.636411 -0.05433,-1.288345 -0.05433,-1.948039 0.01552,-0.426861 0.0078,-0.861483 0,-1.280583 -0.0078,-0.519994 -0.01552,-1.055511 0.02328,-1.575505 0.01552,-0.100895 0.02328,-0.201789 0.03881,-0.341489 l -0.05433,-0.06209 -0.04657,-0.01552 c -0.341489,0 -0.6985,0.0078 -1.04775,0.01552 -0.03104,0 -0.05433,0.0078 -0.06985,0.03104 -0.02328,0.02328 -0.02328,0.05433 -0.02328,0.06985 0.05433,0.426861 0.05433,0.869245 0.06209,1.296106 v 0.582083 c -0.0078,0.496711 0,1.039989 0.01552,1.754011 v 0.06209 c 0.0078,0.481189 0.01552,0.985661 -0.06985,1.466849 -0.0078,0.03881 0,0.06209 0.01552,0.08537 0.01552,0.02328 0.03881,0.03104 0.06209,0.03104 h 1.078794 c 0.03105,0 0.06209,-0.01552 0.07761,-0.0388 0.0078,-0.03105 0.0078,-0.06209 -0.0078,-0.131939 z"
         style="font-family:SMITHOUSE;-inkscape-font-specification:SMITHOUSE;fill:#333333"
         id="path94249" />
      <path
         d="m 68.845781,94.908959 c -0.34925,-0.915811 -1.001183,-1.513417 -2.010127,-1.513417 -0.636411,0 -1.218494,0.271639 -1.622072,0.760589 -0.450144,0.543278 -0.597606,1.272822 -0.380295,1.994605 0.01552,0.01552 0.02328,0.03105 0.03105,0.04657 0.256117,0.706261 0.90805,0.954617 1.60655,0.954617 0.34925,0 0.714022,-0.06209 1.094316,-0.20955 0.03105,0 0.06209,0.01552 0.08537,0.0388 0.03104,0.03881 0.03104,0.08537 0.0078,0.124178 -0.310444,0.519994 -0.807155,0.729544 -1.389238,0.729544 -0.364772,0 -0.752828,-0.09313 -0.939094,-0.34925 -0.0078,-0.01552 -0.03105,-0.03104 -0.06985,-0.03104 -0.01552,0 -0.03104,0 -0.05433,0.0078 -0.03105,0.01552 -0.04657,0.04657 -0.03881,0.108656 0.02328,0.20955 0.03881,0.426861 0.04657,0.636411 0.0078,0.124177 0.0078,0.240594 0.01552,0.357011 0.0078,0.02328 0.01552,0.04657 0.03104,0.06209 0.02328,0.01552 0.03104,0.02328 0.04657,0.03104 0.325967,0.124178 0.667456,0.186267 1.016706,0.186267 0.589844,0 1.443566,-0.225073 1.831621,-0.675217 0.791634,-0.745067 1.094317,-2.204155 0.690739,-3.259666 z m -0.923572,0.457905 c -0.186266,0.512234 -0.783872,0.776111 -1.303866,0.776111 -0.225072,0 -0.450145,-0.05433 -0.620889,-0.186266 -0.170744,-0.1397 -0.256117,-0.34925 -0.232833,-0.613128 0.05433,-0.675217 0.574322,-0.923572 1.001183,-0.939094 h 0.03104 c 0.473428,0 1.024467,0.287161 1.125361,0.90805 0.0078,0.01552 0,0.0388 0,0.05433 z"
         style="font-family:SMITHOUSE;-inkscape-font-specification:SMITHOUSE;fill:#333333"
         id="path94251" />
      <path
         d="m 74.045719,95.242687 c -0.20955,-1.04775 -0.946855,-1.88595 -2.079978,-1.88595 -0.822677,0 -1.653116,0.714022 -1.955799,1.451327 -0.372533,0.892528 -0.20955,2.58445 0.178505,3.104444 0.395817,0.5588 1.055511,0.962378 1.74625,0.962378 0.450144,0 0.900289,-0.155222 1.249539,-0.450144 1.063272,-0.900289 1.001183,-2.3749 0.861483,-3.182055 z m -0.970139,0.776111 c 0,0.682977 -0.240594,1.808338 -1.109839,1.808338 -0.395816,0 -0.721783,-0.201789 -0.931333,-0.574322 -0.34925,-0.636411 -0.310444,-1.660877 0.08537,-2.289527 0.162983,-0.256117 0.457905,-0.566561 0.946855,-0.566561 0.02328,0 0.05433,0 0.131939,0.0078 0.566561,0.20955 0.869244,0.76835 0.877005,1.614311 z"
         style="font-family:SMITHOUSE;-inkscape-font-specification:SMITHOUSE;fill:#333333"
         id="path94253" />
      <path
         d="m 79.020588,94.908959 c -0.34925,-0.915811 -1.001183,-1.513417 -2.010128,-1.513417 -0.636411,0 -1.218494,0.271639 -1.622072,0.760589 -0.450144,0.543278 -0.597605,1.272822 -0.380294,1.994605 0.01552,0.01552 0.02328,0.03105 0.03105,0.04657 0.256116,0.706261 0.908049,0.954617 1.606549,0.954617 0.34925,0 0.714022,-0.06209 1.094317,-0.20955 0.03104,0 0.06209,0.01552 0.08537,0.0388 0.03104,0.03881 0.03104,0.08537 0.0078,0.124178 -0.310444,0.519994 -0.807155,0.729544 -1.389239,0.729544 -0.364772,0 -0.752827,-0.09313 -0.939094,-0.34925 -0.0078,-0.01552 -0.03104,-0.03104 -0.06985,-0.03104 -0.01552,0 -0.03104,0 -0.05433,0.0078 -0.03104,0.01552 -0.04657,0.04657 -0.03881,0.108656 0.02328,0.20955 0.03881,0.426861 0.04657,0.636411 0.0078,0.124177 0.0078,0.240594 0.01552,0.357011 0.0078,0.02328 0.01552,0.04657 0.03104,0.06209 0.02328,0.01552 0.03104,0.02328 0.04657,0.03104 0.325966,0.124178 0.667455,0.186267 1.016705,0.186267 0.589845,0 1.443567,-0.225073 1.831622,-0.675217 0.791633,-0.745067 1.094317,-2.204155 0.690739,-3.259666 z m -0.923572,0.457905 c -0.186267,0.512234 -0.783872,0.776111 -1.303867,0.776111 -0.225072,0 -0.450144,-0.05433 -0.620888,-0.186266 -0.170745,-0.1397 -0.256117,-0.34925 -0.232834,-0.613128 0.05433,-0.675217 0.574322,-0.923572 1.001183,-0.939094 h 0.03104 c 0.473428,0 1.024466,0.287161 1.125361,0.90805 0.0078,0.01552 0,0.0388 0,0.05433 z"
         style="font-family:SMITHOUSE;-inkscape-font-specification:SMITHOUSE;fill:#333333"
         id="path94255" />
      <path
         d="m 89.566825,95.747735 v 0.674549 q -0.397909,0.299379 -0.738973,0.428226 -0.337275,0.128846 -0.704867,0.128846 -0.416856,0 -0.970138,-0.223586 -0.04169,-0.01516 -0.06063,-0.02274 -0.02653,-0.01137 -0.08337,-0.03032 -0.587389,-0.234955 -0.943612,-0.234955 -0.333485,0 -0.659391,0.147794 -0.325906,0.144005 -0.697287,0.458542 v -0.674549 q 0.397908,-0.299379 0.735183,-0.428226 0.341064,-0.132636 0.708656,-0.132636 0.416857,0 0.973928,0.227377 0.0379,0.01516 0.05684,0.02274 0.03032,0.01137 0.08337,0.03032 0.587388,0.234955 0.943611,0.234955 0.325906,0 0.644233,-0.144005 0.322116,-0.144004 0.712446,-0.462331 z"
         style="letter-spacing:-0.3175px;fill:#333333"
         id="path94257" />
      <path
         d="m 94.774313,98.781753 c 0,0.03881 0.0388,0.06209 0.06985,0.06209 0.240594,-0.02328 0.48895,-0.02328 0.745066,-0.02328 h 0.318206 c 0.830439,0 1.6764,-0.03881 2.258483,-0.714022 0.333728,-0.388055 0.302683,-0.884766 0.217311,-1.241777 -0.100894,-0.411339 -0.256117,-0.644173 -0.5588,-0.822678 -0.03104,-0.01552 -0.04657,-0.04657 -0.05433,-0.07761 -0.0078,-0.03105 0.0078,-0.06209 0.03105,-0.09313 0.457905,-0.512233 0.504472,-1.288344 0.116416,-1.808338 -0.217311,-0.294922 -0.589844,-0.481189 -1.094316,-0.5588 -0.504472,-0.08537 -1.04775,-0.09313 -1.544461,-0.09313 h -0.4191 c -0.0388,0 -0.06209,0.01552 -0.07761,0.04657 -0.01552,0.02328 -0.01552,0.03881 -0.01552,0.05433 v 1.008944 c -0.0078,0.481189 -0.0078,0.954617 0.0078,1.428045 0.03104,0.620888 0.01552,1.257299 0,1.878188 -0.0078,0.294922 -0.01552,0.597606 -0.01552,0.892528 z m 1.133122,-2.157589 c 0,-0.05433 0.06209,-0.100894 0.108655,-0.09313 h 0.108656 c 0.20955,0.0078 0.403578,0.01552 0.605367,0.03104 0.302683,0.02328 0.465666,0.04657 0.582083,0.333728 0.06985,0.178506 0.09313,0.465667 -0.07761,0.659694 -0.232834,0.263878 -0.543278,0.310445 -0.877006,0.310445 -0.100894,0 -0.20955,0 -0.310444,-0.0078 h -0.04657 c -0.06209,-0.0078 -0.108655,-0.05433 -0.108655,-0.108656 -0.0078,-0.201789 -0.01552,-0.504472 -0.01552,-0.807155 0,-0.06209 0.0078,-0.1397 0.01552,-0.217311 z m -0.0078,-2.204155 c 0,-0.100894 0.07761,-0.108656 0.155222,-0.108656 0.147461,0 0.302683,0 0.457905,0.02328 0.217312,0.02328 0.388056,0.06209 0.481189,0.294922 0.06209,0.131939 0.07761,0.333728 0.04657,0.496711 -0.09313,0.496711 -0.737305,0.504472 -1.039989,0.512233 -0.03104,0 -0.06209,-0.0078 -0.07761,-0.03104 -0.02328,-0.01552 -0.0388,-0.04657 -0.0388,-0.07761 z"
         style="font-family:SMITHOUSE;-inkscape-font-specification:SMITHOUSE;fill:#333333"
         id="path94259" />
      <path
         d="m 103.03988,98.486831 c 0,0 -0.008,0 -0.008,-0.0078 -0.008,0 -0.0155,-0.0078 -0.0233,-0.0078 -0.36477,-0.06985 -0.52776,-0.395816 -0.67522,-0.690738 l -0.1397,-0.2794 -0.15522,-0.357011 -0.008,-0.01552 -0.0776,-0.186266 c 0,-0.0078 -0.008,-0.0078 -0.008,-0.01552 -0.008,-0.09313 0.008,-0.1397 0.0699,-0.162983 0,-0.0078 0.008,-0.0078 0.008,-0.0078 0.10089,-0.05433 0.20179,-0.124178 0.30268,-0.194028 0.49671,-0.364772 0.6985,-0.915811 0.59761,-1.668638 -0.16299,-1.265061 -1.45909,-1.435806 -2.70863,-1.435806 h -0.388055 -0.05433 -0.294922 -0.108656 c -0.01552,0 -0.02328,0.0078 -0.03104,0.0078 -0.0078,0 -0.01552,0.0078 -0.02328,0.0078 -0.0388,0.0078 -0.06209,0.03881 -0.06209,0.07761 -0.0078,0.613127 0.0078,4.400549 0.03104,5.083527 0.0078,0.1397 0.02328,0.155222 0.06985,0.155222 0.04657,0 0.100894,0 0.147461,-0.0078 0.178506,-0.01552 0.372533,0 0.558802,0.0078 l 0.25611,0.01552 c 0.0155,0 0.0233,0 0.031,-0.0078 0.0466,-0.01552 0.0621,-0.03105 0.0699,-0.04657 0.0155,-0.01552 0.0155,-0.0388 0.0155,-0.06209 -0.11642,-0.504472 -0.10865,-1.039988 -0.0931,-1.637594 0,-0.06209 0.0466,-0.100894 0.10865,-0.100894 h 0.19403 c 0.0233,0.0078 0.0621,0.0078 0.10866,0.0078 0.13194,0.01552 0.23283,0.1397 0.33372,0.388055 0.008,0.0078 0.008,0.01552 0.008,0.02328 0.13193,0.302683 0.27163,0.62865 0.37253,0.807155 l 0.0466,0.07761 c 0.12417,0.217311 0.27163,0.481189 0.49671,0.582083 0.13194,0.06209 0.31044,0.100895 0.47342,0.100895 0.14747,0 0.2794,-0.03105 0.37254,-0.07761 0.12418,-0.06985 0.20179,-0.170745 0.21731,-0.302684 0.008,-0.03104 0,-0.05433 -0.0311,-0.06985 z m -2.70086,-3.244144 -0.008,-0.04657 c 0,-0.232833 -0.008,-0.473428 0,-0.714022 0,-0.05433 0.0466,-0.100895 0.10089,-0.100895 l 0.0543,-0.0078 c 0.12418,-0.0078 0.25612,-0.02328 0.39582,-0.02328 0.16298,0 0.29492,0.01552 0.41133,0.05433 0.25612,0.06985 0.48895,0.256116 0.59761,0.481189 0.0621,0.131938 0.11642,0.333727 0.0155,0.574322 -0.20955,0.504472 -0.64417,0.574322 -1.08655,0.574322 -0.0931,0 -0.18627,-0.0078 -0.30269,-0.0078 l -0.0776,-0.0078 c -0.0543,0 -0.10089,-0.04657 -0.10089,-0.108656 z"
         style="font-family:SMITHOUSE;-inkscape-font-specification:SMITHOUSE;fill:#333333"
         id="path94261" />
      <path
         d="m 108.84519,95.89462 c -0.11642,-1.521178 -0.95462,-2.506839 -2.53012,-2.506839 -0.17851,0 -0.34925,0.01552 -0.57432,0.04657 -1.06328,0.256117 -1.82386,1.109839 -1.97909,2.219677 -0.15522,1.102078 0.26388,2.173111 1.06328,2.72415 l 0.031,0.03881 c 0.38029,0.287161 0.88477,0.450144 1.42804,0.450144 0.72179,0 1.52894,-0.310445 1.98685,-0.884767 l 0.031,-0.03881 c 0.0233,-0.03104 0.0466,-0.06209 0.0621,-0.08537 l 0.0233,-0.03105 c 0.0155,-0.02328 0.031,-0.0388 0.0543,-0.09313 0.30269,-0.512233 0.42686,-1.078794 0.40358,-1.839383 z m -1.75401,1.761772 c -0.20179,0.162983 -0.44238,0.240594 -0.71402,0.240594 -0.67522,0 -1.03999,-0.302683 -1.37372,-0.877005 -0.25612,-0.527756 -0.24059,-1.389239 0.0233,-1.88595 0.27164,-0.496711 0.67522,-0.760589 1.24178,-0.814916 0.75283,0.04657 1.20297,0.388055 1.43581,1.094316 0.26388,0.861483 0.0233,1.738489 -0.61313,2.242961 z"
         style="font-family:SMITHOUSE;-inkscape-font-specification:SMITHOUSE;fill:#333333"
         id="path94263" />
      <path
         d="m 114.73586,95.89462 c -0.11642,-1.521178 -0.95462,-2.506839 -2.53012,-2.506839 -0.17851,0 -0.34925,0.01552 -0.57432,0.04657 -1.06327,0.256117 -1.82386,1.109839 -1.97909,2.219677 -0.15522,1.102078 0.26388,2.173111 1.06328,2.72415 l 0.031,0.03881 c 0.3803,0.287161 0.88477,0.450144 1.42805,0.450144 0.72178,0 1.52893,-0.310445 1.98684,-0.884767 l 0.031,-0.03881 c 0.0233,-0.03104 0.0466,-0.06209 0.0621,-0.08537 l 0.0233,-0.03105 c 0.0155,-0.02328 0.031,-0.0388 0.0543,-0.09313 0.30269,-0.512233 0.42686,-1.078794 0.40358,-1.839383 z m -1.75401,1.761772 c -0.20179,0.162983 -0.44238,0.240594 -0.71402,0.240594 -0.67522,0 -1.03999,-0.302683 -1.37372,-0.877005 -0.25611,-0.527756 -0.24059,-1.389239 0.0233,-1.88595 0.27163,-0.496711 0.67521,-0.760589 1.24177,-0.814916 0.75283,0.04657 1.20297,0.388055 1.43581,1.094316 0.26388,0.861483 0.0233,1.738489 -0.61313,2.242961 z"
         style="font-family:SMITHOUSE;-inkscape-font-specification:SMITHOUSE;fill:#333333"
         id="path94265" />
      <path
         d="m 116.61405,96.911325 c 0,-0.03104 0.0155,-0.06209 0.0388,-0.07761 l 0.51223,-0.512233 c 0.0155,-0.01552 0.0466,-0.03105 0.0931,-0.03105 0.0388,0.0078 0.0621,0.03105 0.0776,0.06209 0.62089,1.2573 0.96238,2.079978 1.08655,2.491317 0.21732,-0.02328 0.44239,-0.03881 0.6597,-0.03881 0.1785,0 0.34925,0.0078 0.5588,0.03104 0.031,0 0.0543,-0.01552 0.0776,-0.03104 0.0233,-0.03104 0.0233,-0.06209 0.008,-0.100894 -0.39582,-0.721784 -0.76835,-1.459089 -1.12536,-2.173111 -0.18627,-0.364772 -0.36477,-0.721783 -0.55104,-1.086556 -0.0233,-0.0388 -0.0155,-0.08537 0.0155,-0.124177 0.25612,-0.294922 0.51224,-0.597606 0.75283,-0.892528 0.24836,-0.302683 0.48119,-0.582083 0.72178,-0.861483 0.031,-0.03105 0.0388,-0.07761 0.0233,-0.108656 -0.0155,-0.04657 -0.0543,-0.04657 -0.0776,-0.04657 -0.29493,0.01552 -0.60537,0.03881 -0.92358,0.03881 -0.13193,0 -0.26387,-0.0078 -0.40357,-0.01552 -0.0466,0 -0.0699,0 -0.0931,0.04657 -0.15522,0.34925 -0.41134,0.667455 -0.65969,0.977899 l -0.13194,0.170745 c -0.16298,0.201789 -0.31821,0.388055 -0.47343,0.5588 -0.0233,0.02328 -0.0543,0.0388 -0.12418,0.03104 -0.0388,-0.01552 -0.0699,-0.06209 -0.0699,-0.100894 -0.008,-0.535517 -0.0155,-1.055511 0.0466,-1.622072 0,-0.02328 -0.008,-0.03881 -0.0155,-0.05433 -0.0233,-0.02328 -0.0466,-0.03104 -0.0699,-0.03104 -0.16298,0 -0.31821,0.0078 -0.48119,0.01552 -0.16298,0.0078 -0.32597,0.01552 -0.48895,0.01552 -0.0388,0 -0.0543,0.01552 -0.0699,0.02328 -0.0155,0.02328 -0.0155,0.05433 -0.0155,0.07761 0.0233,0.745066 0.0233,2.599971 0.0233,3.391605 v 0.294922 c 0,0.388055 -0.008,0.791633 -0.0155,1.241777 v 0.108656 c 0,0.05433 0,0.100894 -0.008,0.155222 0,0.02328 0.0155,0.05433 0.031,0.06209 0.0155,0.01552 0.0388,0.02328 0.0543,0.02328 0.008,0 0.0155,-0.0078 0.0543,-0.0078 h 0.0776 c 0.14746,0 0.29492,0.0078 0.44238,0.0078 0.14746,0 0.29492,-0.0078 0.44239,-0.01552 0.0466,0 0.0776,-0.02328 0.0854,-0.116417 -0.0931,-0.504472 -0.0854,-1.039988 -0.0854,-1.567744 z"
         style="font-family:SMITHOUSE;-inkscape-font-specification:SMITHOUSE;fill:#333333"
         id="path94267" />
      <path
         d="m 124.22768,93.496437 c 0,-0.05433 -0.031,-0.08537 -0.0854,-0.08537 h -0.22507 c -1.18745,0 -2.34386,0.01552 -3.4537,0.03881 h -0.0155 c -0.0466,0 -0.0699,0.02328 -0.0854,0.06209 -0.031,0.147461 -0.0543,0.294922 -0.0776,0.442383 -0.0155,0.155223 -0.0388,0.302684 -0.0776,0.450145 -0.0155,0.05433 -0.008,0.100894 0.0155,0.124177 0.0155,0.01552 0.0388,0.02328 0.0776,0.01552 0.36477,-0.07761 0.73731,-0.09313 1.10208,-0.09313 h 0.24059 c 0.0621,0 0.10866,0.04657 0.10866,0.108656 0.008,0.465667 0.008,0.931333 0.008,1.373716 v 0.519995 c 0,0.201789 0,0.4191 0.008,0.62865 0.0233,0.551038 0.0388,1.117599 -0.0699,1.653116 -0.008,0.03104 0,0.05433 0.0155,0.07761 0.0155,0.02328 0.0388,0.03881 0.0776,0.03881 h 1.03999 c 0.0233,0 0.0388,-0.0078 0.0543,-0.02328 0.0311,-0.02328 0.0388,-0.04657 0.0388,-0.06985 -0.0854,-1.490133 -0.0776,-3.065638 -0.0621,-4.214282 0,-0.06209 0.0466,-0.108656 0.10089,-0.108656 0.20179,-0.0078 0.39582,-0.01552 0.58985,-0.01552 0.17074,0 0.33372,0.0078 0.48895,0.01552 0.10865,0.02328 0.19402,0.04657 0.27163,0.07761 l 0.0699,-0.01552 c 0.031,-0.02328 0.0466,-0.06209 0.0388,-0.09313 z"
         style="font-family:SMITHOUSE;-inkscape-font-specification:SMITHOUSE;fill:#333333"
         id="path94269" />
      <path
         d="m 130.00193,95.89462 c -0.11642,-1.521178 -0.95462,-2.506839 -2.53012,-2.506839 -0.17851,0 -0.34925,0.01552 -0.57433,0.04657 -1.06327,0.256117 -1.82386,1.109839 -1.97908,2.219677 -0.15522,1.102078 0.26388,2.173111 1.06327,2.72415 l 0.0311,0.03881 c 0.38029,0.287161 0.88476,0.450144 1.42804,0.450144 0.72179,0 1.52894,-0.310445 1.98685,-0.884767 l 0.031,-0.03881 c 0.0233,-0.03104 0.0466,-0.06209 0.0621,-0.08537 l 0.0233,-0.03105 c 0.0155,-0.02328 0.0311,-0.0388 0.0543,-0.09313 0.30268,-0.512233 0.42686,-1.078794 0.40358,-1.839383 z m -1.75401,1.761772 c -0.20179,0.162983 -0.44239,0.240594 -0.71402,0.240594 -0.67522,0 -1.03999,-0.302683 -1.37372,-0.877005 -0.25612,-0.527756 -0.24059,-1.389239 0.0233,-1.88595 0.27164,-0.496711 0.67522,-0.760589 1.24178,-0.814916 0.75283,0.04657 1.20297,0.388055 1.43581,1.094316 0.26387,0.861483 0.0233,1.738489 -0.61313,2.242961 z"
         style="font-family:SMITHOUSE;-inkscape-font-specification:SMITHOUSE;fill:#333333"
         id="path94271" />
      <path
         d="m 134.15412,98.797275 c 0.0233,0.03104 0.0388,0.0388 0.0776,0.0388 l 0.66746,-0.0078 c 0.0388,0 0.0854,-0.04657 0.0854,-0.08537 0.0155,-0.201789 0.008,-0.388055 0,-0.566561 -0.008,-0.108655 -0.008,-0.20955 -0.008,-0.310444 -0.008,-0.473428 -0.0155,-3.865033 0.008,-4.291894 0,-0.03881 0,-0.08537 -0.0233,-0.108656 0,0 -0.0155,-0.01552 -0.0543,-0.01552 l -1.02447,-0.02328 c -0.031,0 -0.0698,0.0078 -0.0854,0.05433 -0.0155,0.02328 -0.0155,0.04657 -0.008,0.06985 0.15522,0.535516 0.14746,1.102077 0.14746,1.645355 v 0.1397 c 0,0.287161 -0.008,0.597605 -0.0155,0.954616 0,0.03881 -0.031,0.07761 -0.10866,0.100895 -0.031,0 -0.0621,-0.01552 -0.0854,-0.03881 -0.37254,-0.426861 -0.6985,-0.822677 -0.94686,-1.249538 -0.15522,-0.256117 -0.32596,-0.504473 -0.49671,-0.737306 -0.19403,-0.287161 -0.40358,-0.574322 -0.5976,-0.915811 -0.031,-0.03104 -0.0388,-0.03104 -0.0776,-0.03104 -0.1397,0.0078 -0.28716,0.01552 -0.43462,0.01552 -0.0854,0 -0.1785,0 -0.27164,-0.0078 -0.0388,0 -0.0621,0.01552 -0.0776,0.02328 -0.0155,0.01552 -0.031,0.03881 -0.031,0.06209 l -0.008,0.403578 c -0.008,0.527755 -0.0155,1.071033 0.0155,1.591027 v 0.4191 c 0.008,0.90805 0.0155,1.839383 0.008,2.809522 0.0155,0.04657 0.0466,0.06985 0.0854,0.06985 0.34149,0 0.67522,0.0078 1.01671,0.01552 0.031,0 0.0621,-0.0078 0.0776,-0.03104 0.0233,-0.02328 0.0233,-0.04657 0.0233,-0.07761 -0.1397,-0.613128 -0.12418,-1.241778 -0.10865,-1.854906 0.008,-0.302683 0.0155,-0.613127 0,-0.915811 0,-0.05433 0.031,-0.09313 0.11641,-0.116416 0.031,0 0.0699,0.01552 0.0854,0.04657 0.2794,0.4191 0.57432,0.822678 0.86148,1.210734 0.40358,0.551038 0.82268,1.125361 1.18745,1.715205 z"
         style="font-family:SMITHOUSE;-inkscape-font-specification:SMITHOUSE;fill:#333333"
         id="path94273" />
      <path
         d="m 144.15819,98.797275 c 0.0233,0.03104 0.0388,0.0388 0.0776,0.0388 l 0.66745,-0.0078 c 0.0388,0 0.0854,-0.04657 0.0854,-0.08537 0.0155,-0.201789 0.008,-0.388055 0,-0.566561 -0.008,-0.108655 -0.008,-0.20955 -0.008,-0.310444 -0.008,-0.473428 -0.0155,-3.865033 0.008,-4.291894 0,-0.03881 0,-0.08537 -0.0233,-0.108656 0,0 -0.0155,-0.01552 -0.0543,-0.01552 l -1.02446,-0.02328 c -0.031,0 -0.0699,0.0078 -0.0854,0.05433 -0.0155,0.02328 -0.0155,0.04657 -0.008,0.06985 0.15523,0.535516 0.14746,1.102077 0.14746,1.645355 v 0.1397 c 0,0.287161 -0.008,0.597605 -0.0155,0.954616 0,0.03881 -0.031,0.07761 -0.10865,0.100895 -0.031,0 -0.0621,-0.01552 -0.0854,-0.03881 -0.37253,-0.426861 -0.6985,-0.822677 -0.94685,-1.249538 -0.15522,-0.256117 -0.32597,-0.504473 -0.49671,-0.737306 -0.19403,-0.287161 -0.40358,-0.574322 -0.59761,-0.915811 -0.031,-0.03104 -0.0388,-0.03104 -0.0776,-0.03104 -0.1397,0.0078 -0.28716,0.01552 -0.43462,0.01552 -0.0854,0 -0.17851,0 -0.27164,-0.0078 -0.0388,0 -0.0621,0.01552 -0.0776,0.02328 -0.0155,0.01552 -0.031,0.03881 -0.031,0.06209 l -0.008,0.403578 c -0.008,0.527755 -0.0155,1.071033 0.0155,1.591027 v 0.4191 c 0.008,0.90805 0.0155,1.839383 0.008,2.809522 0.0155,0.04657 0.0466,0.06985 0.0854,0.06985 0.34149,0 0.67522,0.0078 1.0167,0.01552 0.031,0 0.0621,-0.0078 0.0776,-0.03104 0.0233,-0.02328 0.0233,-0.04657 0.0233,-0.07761 -0.1397,-0.613128 -0.12418,-1.241778 -0.10866,-1.854906 0.008,-0.302683 0.0155,-0.613127 0,-0.915811 0,-0.05433 0.0311,-0.09313 0.11642,-0.116416 0.031,0 0.0699,0.01552 0.0854,0.04657 0.2794,0.4191 0.57432,0.822678 0.86149,1.210734 0.40357,0.551038 0.82267,1.125361 1.18745,1.715205 z"
         style="font-family:SMITHOUSE;-inkscape-font-specification:SMITHOUSE;fill:#333333"
         id="path94275" />
      <path
         d="m 150.53781,93.434348 c -0.0854,0 -0.17074,0 -0.26388,0.0078 -0.19402,0.0078 -0.38805,0.01552 -0.58208,0.01552 -0.10089,0 -0.20179,0 -0.31044,-0.0078 -0.031,0 -0.0699,0.01552 -0.0854,0.09313 -0.031,0.325966 -0.24835,0.659694 -0.44238,0.954616 -0.12418,0.194028 -0.24836,0.380294 -0.37253,0.574322 -0.0543,0.08537 -0.10866,0.162983 -0.16299,0.248356 -0.0233,0.03104 -0.0543,0.04657 -0.0931,0.04657 -0.0388,0.0078 -0.0699,-0.01552 -0.0931,-0.03881 -0.11642,-0.162984 -0.22508,-0.325967 -0.33373,-0.496711 L 147.6662,94.63732 c -0.0466,-0.06985 -0.0931,-0.1397 -0.14746,-0.217311 -0.20179,-0.2794 -0.43462,-0.589844 -0.46567,-0.90805 -0.008,-0.03104 -0.031,-0.06209 -0.0621,-0.07761 -0.0233,-0.0078 -0.0388,-0.01552 -0.0621,-0.01552 l -1.07103,0.03104 c -0.0233,0 -0.0543,0.0078 -0.0698,0.03881 -0.0233,0.03104 -0.0155,0.06985 0.008,0.116416 0.40358,0.535517 0.76059,1.125361 1.10984,1.691922 0.23283,0.388056 0.47343,0.776111 0.72178,1.148645 0.008,0.02328 0.0155,0.0388 0.0155,0.06209 0,0.194028 -0.008,0.380295 -0.0155,0.551039 0,0.124178 -0.008,0.240595 -0.008,0.364772 -0.008,0.131939 0,0.263878 0,0.395817 0.0155,0.302683 0.0233,0.589844 -0.0543,0.892528 -0.0155,0.04657 0.008,0.08537 0.0699,0.108655 l 0.0388,0.0078 c 0.0699,0.0078 0.15522,0.0078 0.24836,0.0078 0.11641,0 0.24059,0 0.36477,-0.0078 0.13194,-0.0078 0.27164,-0.0078 0.38805,-0.0078 h 0.0233 c 0.031,0 0.0543,-0.0078 0.0621,-0.02328 0.0155,-0.01552 0.0233,-0.03105 0.0233,-0.06209 -0.0621,-0.504472 -0.0543,-1.024466 -0.0466,-1.521178 v -0.659694 c 0,-0.01552 0.008,-0.03881 0.0233,-0.06209 0.24059,-0.34925 0.4579,-0.706261 0.66745,-1.055511 l 0.17851,-0.287161 c 0.14746,-0.240594 0.30268,-0.473427 0.44238,-0.682977 0.19403,-0.294923 0.38806,-0.589845 0.57432,-0.970139 -0.008,-0.03105 -0.0233,-0.06985 -0.0854,-0.06209 z"
         style="font-family:SMITHOUSE;-inkscape-font-specification:SMITHOUSE;fill:#333333"
         id="path94277" />
    </g>
  </g>
</svg>
